<?xml version="1.0" encoding="UTF-8"?>
<svg width="260px" height="200px" viewBox="0 0 260 200" version="1.1" xmlns="http://www.w3.org/2000/svg" xmlns:xlink="http://www.w3.org/1999/xlink">
    <!-- Generator: Sketch 55.2 (78181) - https://sketchapp.com -->
    <title>订单找回备份</title>
    <desc>Created with Sketch.</desc>
    <g id="钱包+4首新" stroke="none" stroke-width="1" fill="none" fill-rule="evenodd">
        <g id="401" transform="translate(-58.000000, -190.000000)">
            <g id="编组" transform="translate(58.000000, 190.000000)">
                <g id="undraw_page_not_found_su7k" transform="translate(30.000000, 46.000000)">
                    <ellipse id="椭圆形" fill="#F2F2F2" fill-rule="nonzero" cx="100.678484" cy="102.349957" rx="98.2309125" ry="6.50675966"></ellipse>
                    <path d="M96.9135363,31.1180541 C80.909054,31.1180541 69.4180056,41.3918873 69.4180056,65.3641604 C69.4180056,92.5327365 80.9090503,99.7244205 96.9135363,99.7244205 C112.918022,99.7244205 125.093611,91.8478159 125.093611,65.3641604 C125.093611,37.0540469 112.918019,31.1180541 96.9135363,31.1180541 Z M97.0187412,90.7062803 C85.9336648,90.7062803 80.142406,84.1992822 80.142406,65.3817048 C80.142406,48.7779584 86.1707281,40.0220424 97.2558138,40.0220424 C108.340899,40.0220424 114.369222,45.7734675 114.369222,65.3817048 C114.369222,83.7248881 108.103818,90.7062803 97.0187412,90.7062803 Z" id="形状" fill="#2F2E41" fill-rule="nonzero"></path>
                    <path d="M59.8345084,80.7749084 L53.2173184,80.7749084 L53.2173184,61.2779982 C53.2173164,59.1215533 51.4701584,57.3734098 49.3149292,57.3734077 L47.7643929,57.3734077 C46.7294136,57.3734072 45.7368243,57.7847827 45.0049832,58.5170362 C44.2731422,59.2492897 43.8619981,60.2424389 43.8619981,61.278002 L43.8619981,80.7749084 L25.1971788,80.7749084 C24.416178,80.7749094 23.692208,80.3657026 23.2890861,79.6964046 C22.8859642,79.0271066 22.862565,78.1954659 23.2274153,77.5045357 L42.9820521,40.0941818 C43.4797391,39.1516813 43.5706741,38.046566 43.2337528,37.0353118 C42.8968315,36.0240576 42.1613489,35.194592 41.1979963,34.7394179 L40.0318305,34.1884183 C38.1511532,33.2998197 35.9044477,34.0431571 34.9239534,35.8783934 L10.8305698,80.9750566 C10.4202927,81.7429895 10.2056462,82.600317 10.2056462,83.4710858 L10.2056462,83.4710858 C10.2056462,84.8752943 10.7631515,86.22199 11.7555172,87.2149152 C12.747883,88.2078404 14.0938197,88.7656597 15.4972365,88.7656592 L43.8619981,88.7656592 L43.8619981,101.094262 C43.8619981,102.335552 44.3548209,103.526003 45.2320512,104.403728 C46.1092814,105.281453 47.2990609,105.774554 48.5396518,105.774554 L48.5396611,105.774554 C49.780252,105.774554 50.9700315,105.281453 51.8472617,104.403728 C52.7244919,103.526003 53.2173147,102.335552 53.2173147,101.094262 L53.2173147,88.7656667 L59.8344991,88.7656667 C62.03984,88.7656667 63.827622,86.9768762 63.827622,84.7702912 L63.827622,84.7702912 C63.827622,82.5637071 62.0398485,80.7749135 59.8345084,80.7749084 Z" id="路径" fill="#FF5740" fill-rule="nonzero"></path>
                    <path d="M182.366449,80.7749084 L175.749264,80.7749084 L175.749264,61.2779982 C175.749262,59.1215511 174.002101,57.3734067 171.84687,57.3734077 L170.296333,57.3734077 C169.261354,57.3734072 168.268765,57.7847827 167.536924,58.5170362 C166.805083,59.2492897 166.393939,60.2424389 166.393939,61.278002 L166.393939,80.7749084 L147.729119,80.7749084 C146.948118,80.7749105 146.224147,80.3657039 145.821025,79.6964055 C145.417903,79.0271071 145.394504,78.1954658 145.759356,77.5045357 L165.513991,40.0941892 C166.01168,39.1516881 166.102616,38.0465713 165.765695,37.0353156 C165.428774,36.0240598 164.693291,35.1945927 163.729937,34.7394179 L162.563771,34.1884183 C160.683093,33.2998195 158.436387,34.0431569 157.455892,35.8783934 L133.36251,80.9750566 C132.952233,81.7429895 132.737587,82.600317 132.737587,83.4710858 L132.737587,83.4710858 C132.737587,86.395198 135.106711,88.7656592 138.029175,88.7656592 L166.393939,88.7656592 L166.393939,101.094262 C166.393939,103.679116 168.488195,105.774554 171.071592,105.774554 L171.071592,105.774554 C173.654989,105.774554 175.749246,103.679116 175.749246,101.094262 L175.749246,88.7656667 L182.36643,88.7656667 C184.571771,88.7656667 186.359553,86.9768762 186.359553,84.7702912 L186.359553,84.7702912 C186.359553,82.5637107 184.571785,80.7749186 182.366449,80.7749084 L182.366449,80.7749084 Z" id="路径" fill="#FF5740" fill-rule="nonzero"></path>
                    <path d="M61.6599385,78.4918316 L55.0427523,78.4918316 L55.0427523,58.9949252 C55.0427528,57.9593621 54.6316093,56.9662128 53.8997686,56.2339589 C53.1679279,55.5017051 52.1753387,55.0903291 51.1403594,55.0903291 L49.5898231,55.0903291 C47.43459,55.0903291 45.6874283,56.8384763 45.6874283,58.9949252 L45.6874283,78.4918316 L27.0226089,78.4918316 C26.2416082,78.4918326 25.5176382,78.0826259 25.1145163,77.4133279 C24.7113944,76.7440298 24.6879952,75.9123892 25.0528454,75.221459 L44.8074804,37.8111162 C45.3051707,36.8686148 45.3961077,35.763497 45.0591866,34.7522403 C44.7222655,33.7409836 43.9867814,32.9115159 43.0234264,32.4563412 L41.8572607,31.9053416 C39.9765852,31.0167413 37.72988,31.7600743 36.7493818,33.5953074 L12.656,78.6919817 C12.2457229,79.4599153 12.0310764,80.3172434 12.0310764,81.1880128 L12.0310764,81.1880128 C12.0310764,84.1121249 14.4002012,86.4825862 17.3226648,86.4825862 L45.6874283,86.4825862 L45.6874283,98.8111887 C45.6874283,100.052479 46.1802511,101.24293 47.0574813,102.120655 C47.9347116,102.99838 49.1244911,103.491481 50.3650819,103.491481 L50.3650912,103.491481 C52.948488,103.491481 55.0427449,101.396043 55.0427449,98.8111887 L55.0427449,86.4825937 L61.6599311,86.4825937 C62.7189731,86.4825937 63.7346396,86.0616535 64.4834954,85.3123753 C65.2323512,84.5630971 65.653054,83.5468577 65.653054,82.4872182 L65.653054,82.4872182 C65.653054,81.4275781 65.2323565,80.411337 64.483502,79.6620566 C63.7346474,78.9127761 62.7189812,78.4918336 61.6599385,78.4918316 L61.6599385,78.4918316 Z" id="路径" stroke="#3F3D56" stroke-width="0.5"></path>
                    <path d="M185.789128,78.4918316 L179.171944,78.4918316 L179.171944,58.9949252 C179.171944,56.8384763 177.424782,55.0903291 175.269549,55.0903291 L173.719013,55.0903291 C172.684034,55.0903291 171.691444,55.501705 170.959603,56.2339588 C170.227762,56.9662126 169.816618,57.9593619 169.816618,58.9949252 L169.816618,78.4918316 L151.151799,78.4918316 C150.370798,78.4918326 149.646828,78.0826259 149.243706,77.4133279 C148.840584,76.7440298 148.817185,75.9123892 149.182035,75.221459 L168.93667,37.8111162 C169.434361,36.8686148 169.525298,35.763497 169.188377,34.7522403 C168.851455,33.7409836 168.115971,32.9115159 167.152616,32.4563412 L165.986451,31.9053416 C164.105775,31.0167413 161.85907,31.7600743 160.878572,33.5953074 L136.78519,78.6919817 C136.374913,79.4599153 136.160266,80.3172434 136.160266,81.1880128 L136.160266,81.1880128 C136.160266,84.1121249 138.529391,86.4825862 141.451855,86.4825862 L169.816618,86.4825862 L169.816618,98.8111887 C169.816618,101.396043 171.910875,103.491481 174.494272,103.491481 L174.494272,103.491481 C177.077669,103.491481 179.171926,101.396043 179.171926,98.8111887 L179.171926,86.4825937 L185.78911,86.4825937 C186.848152,86.4825937 187.863818,86.0616535 188.612674,85.3123753 C189.36153,84.5630971 189.782233,83.5468577 189.782233,82.4872182 L189.782233,82.4872182 C189.782233,80.2806362 187.994466,78.4918419 185.789128,78.4918316 Z" id="路径" stroke="#3F3D56" stroke-width="0.5"></path>
                    <path d="M100.564395,29.0632886 C84.5599125,29.0632886 73.0688641,39.3371199 73.0688641,63.3093949 C73.0688641,90.477971 84.5599088,97.669655 100.564395,97.669655 C116.568881,97.669655 128.744469,89.7930504 128.744469,63.3093949 C128.744469,34.9992795 116.568877,29.0632886 100.564395,29.0632886 Z M100.669609,88.6515129 C89.5845326,88.6515129 83.7932737,82.1445166 83.7932737,63.3269392 C83.7932737,46.7231928 89.8215959,37.9672769 100.906682,37.9672769 C111.991767,37.9672769 118.020089,43.7187019 118.020089,63.3269392 C118.020089,81.6701207 111.754676,88.6515129 100.6696,88.6515129 L100.669609,88.6515129 Z" id="形状" stroke="#3F3D56" stroke-width="0.5"></path>
                    <ellipse id="椭圆形" fill="#2F2E41" fill-rule="nonzero" cx="93.5954115" cy="8.73579289" rx="6.73858845" ry="8.73579289"></ellipse>
                    <path d="M93.5954115,14.8332585 C90.2196946,14.8332585 87.4238473,11.6153325 86.9332588,7.41663017 C86.8822238,7.85449496 86.8568227,8.29496063 86.8568227,8.73579289 C86.8568227,13.5604366 89.8737952,17.4715858 93.5954115,17.4715858 C97.3170279,17.4715858 100.334002,13.5604422 100.334002,8.73579289 C100.334002,8.29496063 100.308601,7.85449496 100.257566,7.41663017 C99.7669777,11.6153325 96.9711359,14.8332585 93.5954115,14.8332585 Z" id="路径" fill="#000000" fill-rule="nonzero" opacity="0.1"></path>
                    <path d="M107.30767,34.3189314 C107.162957,34.9139502 106.53897,35.3904852 105.847929,35.7234308 C104.395065,36.4234195 102.602994,36.6323008 100.864745,36.7024148 C100.421309,36.729378 99.9764356,36.7211539 99.534298,36.6778199 C98.6775219,36.5949029 97.8737552,36.2252131 97.2530093,35.6285486 C97.1629354,35.5698085 97.1092963,35.4689233 97.1109115,35.3613587 C97.112601,35.2537941 97.1693134,35.154606 97.261149,35.0986633 C98.1865493,34.0815387 99.7308324,33.4578779 101.286499,33.0088277 C102.466089,32.6683322 104.52324,31.7863713 105.809801,31.9053937 C107.055948,32.0206859 107.490391,33.5676437 107.30767,34.3189314 Z" id="路径" fill="#3F3D56" fill-rule="nonzero"></path>
                    <path d="M107.30767,34.3189314 C107.162957,34.9139502 106.53897,35.3904852 105.847929,35.7234308 C104.395065,36.4234195 102.602994,36.6323008 100.864745,36.7024148 C100.421309,36.729378 99.9764356,36.7211539 99.534298,36.6778199 C98.6775219,36.5949029 97.8737552,36.2252131 97.2530093,35.6285486 C97.1629354,35.5698085 97.1092963,35.4689233 97.1109115,35.3613587 C97.112601,35.2537941 97.1693134,35.154606 97.261149,35.0986633 C98.1865493,34.0815387 99.7308324,33.4578779 101.286499,33.0088277 C102.466089,32.6683322 104.52324,31.7863713 105.809801,31.9053937 C107.055948,32.0206859 107.490391,33.5676437 107.30767,34.3189314 Z" id="路径" fill="#000000" fill-rule="nonzero" opacity="0.1"></path>
                    <path d="M88.8349832,29.8718506 C88.391488,30.7415201 88.3112001,31.751784 88.6117616,32.680652 C88.9174616,33.6024985 89.489669,34.4128555 90.2559348,35.0091212 C92.1357616,36.5167924 94.7229441,36.7242632 97.1320559,36.7033315 C99.2434052,36.6849502 101.351771,36.5403629 103.445883,36.2703425 C104.147628,36.2081183 104.837213,36.0479133 105.494566,35.7943908 C106.280864,35.4540145 106.971814,34.829683 107.251736,34.0195167 C107.531657,33.2093505 107.332974,32.2172977 106.668155,31.6766167 C106.084009,31.2015463 105.278462,31.1362003 104.527047,31.0910184 L100.227672,30.8325021 C100.652439,30.4023918 101.218019,30.1591243 101.735281,29.8464415 C102.421544,29.4316043 102.877475,28.735098 103.376458,28.1071536 C104.145306,27.1877636 104.981817,26.3272124 105.878991,25.5327041 C106.018912,26.3358347 106.5267,26.995335 107.124304,27.5494836 C107.721907,28.1036321 108.410786,28.5497589 109.03192,29.077371 C110.536315,30.3552572 111.619598,32.0896652 113.20178,33.2697588 C114.290178,32.9836039 115.307673,32.4753374 116.19035,31.7768874 L115.575436,30.6624024 C115.524196,30.5477053 115.444395,30.4480847 115.343669,30.3730736 C115.169618,30.2659368 114.945205,30.3211411 114.74311,30.2908224 C114.20292,30.2097711 113.967,29.5857694 113.755028,29.0820645 C113.173108,27.6992123 112.058939,26.6263169 111.107387,25.4666538 C110.405062,24.6106135 109.782024,23.6924197 109.245978,22.7234238 C108.926328,22.1455151 108.633687,21.5437885 108.199896,21.0459026 C107.766104,20.5480167 107.158261,20.1565744 106.498127,20.1551713 C105.914845,20.1539416 105.376857,20.4502297 104.875367,20.7482618 C103.347931,21.6560503 101.878302,22.6578548 100.474961,23.7478934 C99.7405549,24.3183639 99.0107039,24.9210781 98.1492011,25.2708991 C97.7865419,25.4181609 97.4042402,25.518808 97.0562328,25.6979984 C96.4467114,26.0118438 95.9841266,26.5428602 95.486162,27.0142246 C93.7100782,28.6954611 91.2783985,29.7847456 88.8349832,29.8718506 Z" id="路径" fill="#3F3D56" fill-rule="nonzero"></path>
                    <path d="M97.8248976,17.9054412 C97.8049325,18.4193485 97.6956785,18.9258519 97.5020317,19.4022534 C97.3036214,19.8825605 96.9145432,20.2586944 96.4279683,20.4405837 C96.086165,20.5322063 95.7278651,20.5438411 95.3808436,20.4745861 C95.078243,20.4429629 94.7866424,20.3435719 94.527676,20.1837871 C94.12454,19.9064669 93.9235512,19.411633 93.8503054,18.9273525 C93.7770596,18.4436534 93.8098696,17.9494138 93.7629963,17.4622025 C93.7173249,17.0686762 93.6425071,16.6790872 93.5391601,16.2966496 C93.5075158,16.1694233 93.4752868,16.0427858 93.4436406,15.9161446 C93.4125903,15.7895052 93.3821192,15.662864 93.3539926,15.5362284 C93.3282067,15.4172078 93.3041881,15.2976059 93.2836741,15.1774153 C93.2666853,15.0759875 93.2514581,14.9739691 93.2403128,14.8713675 C93.230055,14.5671952 93.1794143,14.2657387 93.0897225,13.9749254 C93.0055375,13.7863176 92.900167,13.607912 92.7756462,13.4431545 C92.7223222,13.3669364 92.6707561,13.2907203 92.6232905,13.2115677 C92.4860199,13.0058736 92.4222198,12.7598139 92.4422365,12.5132913 C92.4478743,12.4751805 92.4570946,12.4376871 92.4697747,12.4013101 C92.47446,12.3872389 92.4797318,12.3731751 92.4856034,12.3596851 C92.5926256,12.3306124 92.6783793,12.2505095 92.7147114,12.1456744 C92.734863,12.0347574 92.725363,11.9204819 92.6871732,11.8144206 C92.6433882,11.6662179 92.5834541,11.52328 92.5084507,11.3881821 C92.4592328,11.2990648 92.2922346,11.1384212 92.2910512,11.0364009 C92.2887151,10.8311977 92.6895196,10.6658624 92.8518324,10.5849527 C93.3472761,10.3367193 93.8997325,10.2246278 94.4526834,10.2601458 C94.8071881,10.2841817 95.1915847,10.3932338 95.3873017,10.6904852 C95.5630931,10.9584203 95.5396425,11.3055079 95.614648,11.6168343 C95.6225465,11.6620864 95.6416881,11.7046256 95.6703128,11.7405409 C95.7085537,11.7754061 95.7566709,11.7975303 95.8080186,11.8038578 C95.8948236,11.8211365 95.9837985,11.8246988 96.0717058,11.814415 L96.0722924,11.814415 C96.095528,11.8125719 96.1186218,11.8092417 96.141432,11.8044447 C96.2783213,11.7791741 96.4077261,11.7232544 96.5199628,11.6408702 C96.5926269,11.6215222 96.6658734,11.6056921 96.739702,11.5933797 C96.7426846,11.5930764 96.7456312,11.5924867 96.7485009,11.591619 C97.0420689,12.5185512 97.0801583,13.5123219 97.3204022,14.4562582 C97.4393482,14.9258787 97.6098659,15.3896392 97.6338845,15.8727458 C97.6356443,15.8938508 97.6362309,15.9155446 97.6368175,15.9372366 C97.6403371,16.0926054 97.6280335,16.2491443 97.6344711,16.403928 C97.6367137,16.4736274 97.6445546,16.5430335 97.6579181,16.6114752 C97.6841917,16.7215579 97.7168643,16.8300126 97.7557691,16.9362858 L97.7575289,16.9415607 C97.7686592,16.9755668 97.7792104,17.0101599 97.788,17.0447492 C97.7944376,17.069959 97.8003035,17.0945855 97.8049963,17.1197953 L97.8055754,17.1215523 C97.8489553,17.380627 97.8554605,17.6445418 97.8248976,17.9054412 L97.8248976,17.9054412 Z" id="路径" fill="#FBBEBE" fill-rule="nonzero"></path>
                    <ellipse id="椭圆形" fill="#FBBEBE" fill-rule="nonzero" cx="93.7126052" cy="8.38401542" rx="3.45718994" ry="3.45914015"></ellipse>
                    <path d="M115.661659,27.231047 C115.561454,26.2873045 115.226204,25.3837991 114.686613,24.6032769 C114.776266,25.136803 114.866116,25.6701354 114.956162,26.2032739 C114.727428,26.2694941 114.481219,26.1937486 114.329182,26.0103849 C114.183608,25.8285117 114.072226,25.6217168 114.000451,25.4000501 C113.607666,24.4244549 113.094062,23.50204 112.47168,22.6544296 C110.270793,22.4709202 108.095101,21.558061 106.159659,20.4939341 C104.223639,19.4303922 102.411834,18.155204 100.501592,17.0465212 C100.170451,16.8462237 99.8254137,16.6698832 99.4691229,16.5188494 C98.8714432,16.2790494 98.2005158,16.1547596 97.633879,15.8727514 C97.595797,15.8539885 97.5577151,15.8340574 97.5202048,15.8135355 C97.3921968,15.7438786 97.2709643,15.662422 97.1580838,15.5702252 C97.0970719,15.5206569 97.0391492,15.4673989 96.9846406,15.4107498 C96.70192,15.0816617 96.477755,14.7064576 96.3219106,14.3014819 C96.0177989,13.6284172 95.9093892,12.816397 95.6058641,12.1433304 C95.7453687,12.0128799 95.9021121,11.90221 96.0717039,11.8144206 L96.0722905,11.8144206 C96.0968957,11.8015194 96.1215084,11.7892071 96.1467076,11.7774835 C96.2668005,11.720891 96.3917171,11.6751725 96.5199609,11.6408758 C96.5926251,11.6215278 96.6658715,11.6056977 96.7397002,11.5933853 C96.7426828,11.593082 96.7456293,11.5924923 96.7484991,11.5916246 C97.0908726,11.535811 97.4416543,11.5635792 97.7710037,11.6725342 C98.2526648,11.8355256 98.6587337,12.1609195 99.0636443,12.4687243 C99.7214483,12.9324073 100.352377,13.4331293 100.953378,13.9684674 C101.287376,14.2885734 101.592074,14.6403546 101.95127,14.9311628 C102.249753,15.1616597 102.564449,15.3703349 102.892912,15.555567 C104.836566,16.7140824 106.780405,17.8724046 108.72443,19.0305336 C109.382466,19.4227659 110.041089,19.8149963 110.684492,20.2300926 C111.661875,20.8609473 112.604097,21.5445655 113.545745,22.2276005 C114.100652,22.6297974 114.655368,23.03219 115.209892,23.4347783 C115.391837,23.5509057 115.551579,23.698629 115.681587,23.8709832 C115.796461,24.0666761 115.867814,24.2848515 115.89078,24.5106362 C116.029974,25.4228271 115.951461,26.3550283 115.661659,27.231047 Z" id="路径" fill="#FBBEBE" fill-rule="nonzero"></path>
                    <path d="M98.6821713,20.5068315 C98.448959,21.5533693 97.3918771,22.1859904 96.8393091,23.1052908 C96.1525605,24.2462227 96.4326462,25.5724173 96.6904786,26.8792696 C96.2193613,27.2855756 95.7480484,27.6918792 95.27654,28.0981802 C95.0163762,28.3215576 94.7562104,28.546105 94.4761173,28.7436913 C94.0677085,29.0174961 93.6408921,29.2627586 93.1987132,29.477729 C92.7815065,29.6923155 92.3643004,29.9070946 91.947095,30.1220662 C91.5592531,30.3402677 91.1482941,30.5144986 90.7218417,30.6415266 C89.8997318,30.8525916 89.0266499,30.7048435 88.2133315,30.4603593 C88.1174187,30.4351929 88.0252204,30.3975446 87.9390968,30.3483781 C87.8883598,30.3181088 87.8441424,30.2780503 87.8090149,30.2305314 C87.7288239,30.0866932 87.6997022,29.9199145 87.7263985,29.7573913 C87.8090149,28.3878072 88.1435978,27.0469507 88.4770149,25.7160607 C88.6552288,24.9176222 88.8948192,24.134151 89.193648,23.372639 C89.4867588,22.7201321 89.8236792,22.0882265 90.2020987,21.4812561 C90.6197525,20.7175648 91.1145472,19.9987223 91.6787244,19.336 C91.953387,19.0809301 92.1845654,18.7826836 92.3631285,18.4530404 C92.5711471,17.9781432 92.4908752,17.4334712 92.5330577,16.9163603 C92.565339,16.5278425 92.6684099,16.1485159 92.8371769,15.7971259 L92.8371769,15.796539 C92.9274479,15.6072659 93.0361824,15.4273768 93.161797,15.2594913 C93.2186412,15.3919943 93.2754804,15.5243017 93.3323147,15.6564134 C93.3698181,15.7431849 93.4069274,15.8297638 93.4436425,15.9161502 C93.4916946,16.0275463 93.5393544,16.1385512 93.586622,16.2491648 C93.7231496,16.5669392 93.8594854,16.8845155 93.9956294,17.2018937 C94.1427531,17.6016421 94.3524029,17.975471 94.616743,18.3094082 C94.8625496,18.6572513 95.2729483,18.850276 95.6974717,18.8177124 C96.121995,18.7851489 96.4981917,18.5317874 96.6881341,18.1505198 C96.8850912,17.8006619 97.0277423,17.4228758 97.1111974,17.0301116 C97.2269177,16.5518809 97.2428767,16.0549172 97.1580782,15.5702401 C97.0168585,14.6368554 96.6201601,13.6835432 96.3318622,12.8164119 C96.2145168,12.5272872 96.1465766,12.2204838 96.1308808,11.9088239 C96.1314639,11.8738021 96.1349909,11.8388915 96.1414246,11.8044615 C96.1431844,11.7956688 96.1449441,11.7862874 96.146702,11.7774947 C96.2667949,11.7209022 96.3917115,11.6751837 96.5199553,11.640887 C96.5926195,11.621539 96.6658659,11.6057089 96.7396946,11.5933965 C96.9934227,12.9676722 97.2475363,14.3419473 97.5020354,15.7162218 C97.5079013,15.7484691 97.5143445,15.7807144 97.520203,15.8135467 C97.5565326,16.0105405 97.5934488,16.2075379 97.6344637,16.4039448 C97.6713873,16.5821775 97.7112291,16.7598251 97.7557616,16.9363026 L97.7575214,16.9415775 C97.7727579,17.0013877 97.7885791,17.0605962 97.8049888,17.119812 L97.805568,17.1215691 C97.850689,17.2833884 97.9010801,17.4440321 97.9579162,17.6023317 C98.3024674,18.5562308 98.9030819,19.5165823 98.6821713,20.5068315 Z" id="路径" fill="#FF5740" fill-rule="nonzero"></path>
                    <path d="M112.712745,35.2140002 C112.701856,35.415603 112.740875,35.6167777 112.826339,35.7996712 C113.042711,36.1953375 113.561872,36.2852802 114.011121,36.3222824 C116.635376,36.5381152 119.275574,36.4576289 121.881829,36.0823445 C122.023232,36.0726667 122.16042,36.0300674 122.282454,35.9579429 C122.653004,35.6980031 122.424594,35.0644969 122.019976,34.8616917 C121.615358,34.6588865 121.135197,34.7077614 120.691242,34.619939 C120.250174,34.5088539 119.830147,34.3265889 119.447678,34.0803108 C118.547325,33.562739 117.660112,33.0231375 116.786039,32.4615061 C116.265642,32.1271202 115.651454,31.7702542 115.065393,31.968515 C113.47784,32.5058757 112.702296,33.5004792 112.712745,35.2140002 Z" id="路径" fill="#3F3D56" fill-rule="nonzero"></path>
                    <path d="M93.3674711,15.4629394 L93.3674711,15.4635263 C93.3633743,15.4881491 93.3592663,15.5121869 93.3539944,15.5362265 C93.3475512,15.5761 93.339933,15.6165474 93.3323147,15.656406 C93.2596555,16.0287053 93.1705885,16.3992419 93.0680447,16.7674365 C92.7867784,17.7846561 92.4100074,18.7854625 92.036162,19.7716106 C91.0329901,22.4157978 90.0296238,25.0601813 89.0260633,27.704761 C88.7729236,28.370792 88.5203762,29.0374081 88.2326667,29.6899548 C88.1365773,29.9074722 88.0375419,30.1267448 87.9390968,30.3483669 C87.5863464,31.1416205 87.2476629,31.9606763 87.1351564,32.80494 C87.030262,33.360578 87.0181838,33.9297744 87.0994134,34.4893664 C87.2119199,35.0428292 87.5476778,35.583391 88.0732849,35.7880073 C88.3299385,35.8882649 88.6973315,36.022525 88.6270186,36.2892899 C88.5889367,36.4358623 88.4225177,36.5073924 88.273095,36.5320152 C87.8736297,36.5957175 87.4665363,36.4784227 87.162108,36.2119092 C86.8814283,35.9627333 86.6657989,35.5751908 86.2925382,35.5335659 C86.0341266,35.5054308 85.7962291,35.6602034 85.5594972,35.7686668 C84.5938287,36.2101484 83.4687728,35.9011698 82.4544693,35.5875032 C82.5341601,35.1765098 82.9466816,34.905642 83.35627,34.8235604 C83.7658585,34.7408936 84.1895084,34.7995245 84.6072942,34.7883841 C84.7410917,34.7955229 84.8738492,34.7613424 84.9875847,34.6904723 C85.0895412,34.5968274 85.1609977,34.4746697 85.1926723,34.3398668 C85.4617894,33.541989 85.6619489,32.7224668 85.790946,31.8903275 C85.9257132,31.0208522 85.9819721,30.1378926 86.174162,29.2789726 C86.3235866,28.608835 86.55446,27.9598099 86.7525084,27.3019846 C87.1355012,25.947558 87.4499789,24.5746661 87.694743,23.1885408 C87.8184841,22.6126592 87.9071286,22.0297848 87.9601862,21.4431415 C87.9935847,20.956517 87.9777616,20.4675449 88.024635,19.9826793 C88.1033086,19.351868 88.2348336,18.7287891 88.4178212,18.1200221 C88.5971223,17.4557507 88.7762328,16.7918686 88.9551527,16.128376 C89.2205978,15.1463326 89.5053669,14.126182 90.1780577,13.3628243 C90.650317,12.819627 91.3264492,12.4965501 92.0455326,12.4704855 C92.1789248,12.4704855 92.3119392,12.4846744 92.4422309,12.5132838 C92.463905,12.5185587 92.4855922,12.5238373 92.5072644,12.5296991 C92.6492503,12.5668424 92.7854855,12.6232605 92.912175,12.6973821 C93.1196015,12.5654641 93.2250708,12.6117807 93.3627784,12.815225 C93.483496,13.0305337 93.5404082,13.2757981 93.526851,13.5222996 C93.5384579,14.1728764 93.4850661,14.8229856 93.3674711,15.4629394 L93.3674711,15.4629394 Z" id="路径" fill="#FBBEBE" fill-rule="nonzero"></path>
                    <path d="M93.5954115,16.2403665 L93.586622,16.2491592 L93.539162,16.2966496 L93.0680447,16.7674458 L92.8371769,15.7971278 L92.04554,12.470485 C92.1789322,12.4703225 92.3119467,12.4846725 92.4422384,12.513282 C92.4478761,12.4751712 92.4570964,12.4376778 92.4697765,12.4013008 L92.5072719,12.5296991 L92.775648,13.443147 L93.283676,15.1774078 L93.3674749,15.4629338 L93.3674749,15.4635207 L93.5954115,16.2403665 Z" id="路径" fill="#FF5740" fill-rule="nonzero"></path>
                    <path d="M96.584959,5.62753026 C96.5841617,6.2496348 96.3362622,6.84591164 95.8958547,7.28504388 C95.8168817,7.36418272 95.7322314,7.43743843 95.642581,7.50422518 C95.2382258,7.80922109 94.7456705,7.97430063 94.2392905,7.97453689 L91.4281192,7.97453689 C90.1346781,7.97253916 89.0871945,6.92284563 89.0871945,5.62867336 C89.0871945,4.33450109 90.1346781,3.28480756 91.4281192,3.28280983 L94.2392924,3.28280983 C95.5324866,3.28617851 96.5803412,4.33361038 96.584959,5.62753026 L96.584959,5.62753026 Z" id="路径" fill="#2F2E41" fill-rule="nonzero"></path>
                    <path d="M99.1620726,0.99670159 C99.1326034,0.99670159 99.1034041,0.997871709 99.0741769,0.998924444 C100.365853,1.04590993 101.388734,2.10725202 101.388734,3.40051026 C101.388734,4.69376851 100.365853,5.7551106 99.0741769,5.80209609 C99.1034022,5.80314882 99.1326015,5.80431894 99.1620726,5.80431894 C100.488911,5.80431894 101.564526,4.72809714 101.564526,3.40051026 C101.564526,2.07292339 100.488911,0.99670159 99.1620726,0.99670159 L99.1620726,0.99670159 Z" id="路径" fill="#000000" fill-rule="nonzero" opacity="0.1"></path>
                    <path d="M87.7357691,0.99670159 C87.7652384,0.99670159 87.7944376,0.997871709 87.8236648,0.998924444 C86.531989,1.04590993 85.509108,2.10725202 85.509108,3.40051026 C85.509108,4.69376851 86.531989,5.7551106 87.8236648,5.80209609 C87.7944283,5.80314882 87.7652384,5.80431894 87.7357691,5.80431894 C86.4097566,5.80315085 85.3354299,4.72727125 85.3354299,3.40051026 C85.3354299,2.07374928 86.4097566,0.997869684 87.7357691,0.99670159 Z" id="路径" fill="#000000" fill-rule="nonzero" opacity="0.1"></path>
                    <path d="M95.642581,7.50422518 C95.2382258,7.80922109 94.7456705,7.97430063 94.2392905,7.97453689 L91.4281192,7.97453689 C90.9217352,7.97430062 90.4291757,7.80922123 90.0248156,7.50422518 L95.642581,7.50422518 Z" id="路径" fill="#000000" fill-rule="nonzero" opacity="0.1"></path>
                    <path d="M113.796197,24.9220432 C113.796197,24.9220432 114.401836,26.6682064 114.95616,26.2032739 L114.514339,23.9208288 L113.796197,24.9220432 Z" id="路径" fill="#FBBEBE" fill-rule="nonzero"></path>
                    <path d="M187.497916,78.172497 C189.044847,78.7351814 190.778251,78.2588453 191.820948,76.9845362 C192.863646,75.7102272 192.988165,73.915943 192.131495,72.5096729 C191.274825,71.1034029 189.623851,70.3919326 188.014043,70.7352985 L188.11105,72.7312468 L187.167263,71.0207015 C186.240987,71.4561767 185.525399,72.2417951 185.177752,73.2049143 C185.054289,73.5422821 184.979233,73.8954544 184.954823,74.2538967 C184.832412,75.9818678 185.870488,77.581418 187.497916,78.172497 Z" id="路径" fill="#57B894" fill-rule="nonzero"></path>
                    <path d="M192.167814,101.322126 C191.834655,99.6246566 193.278298,98.1197989 194.704287,97.1416478 C196.130276,96.1634967 197.796466,95.2024185 198.283011,93.5424417 C198.982266,91.1567634 196.899399,88.9719301 195.278236,87.0878232 C194.075489,85.6896017 193.042612,84.153672 192.201218,82.5121746 C191.863961,81.8539823 191.553996,81.1659258 191.465238,80.4316236 C191.337415,79.3741447 191.676957,78.3218512 192.019037,77.3131559 C193.158609,73.952889 194.377009,70.6207777 195.674238,67.3168218" id="路径" stroke="#3F3D56" stroke-width="0.5"></path>
                    <path d="M187.657529,77.6586244 C189.204459,78.2213089 190.937864,77.7449727 191.980561,76.4706637 C193.023258,75.1963546 193.147778,73.4020704 192.291108,71.9958004 C191.434437,70.5895303 189.783464,69.87806 188.173655,70.2214259 L188.270663,72.2173743 L187.326873,70.5068289 C186.400599,70.9423045 185.685012,71.7279228 185.337365,72.6910417 C185.213902,73.0284095 185.138846,73.3815818 185.114436,73.7400241 C184.992024,75.4679953 186.0301,77.0675459 187.657529,77.6586244 Z" id="路径" stroke="#3F3D56" stroke-width="0.5"></path>
                    <path d="M191.694108,66.6275375 C192.143997,65.3855041 193.195541,64.4585493 194.483667,64.1684901 L194.802775,66.0659807 L195.394395,64.0731141 C197.079882,64.0981235 198.555884,65.2104477 199.045262,66.8244294 C199.53464,68.4384111 198.925129,70.1838006 197.537648,71.141621 C196.150166,72.0994415 194.303004,72.0499675 192.968723,71.0192479 C191.634441,69.9885284 191.119128,68.2130118 191.694102,66.6275375 L191.694108,66.6275375 Z" id="路径" fill="#57B894" fill-rule="nonzero"></path>
                    <path d="M191.906924,65.9423728 C192.356814,64.7003404 193.408357,63.7733865 194.696482,63.4833272 L195.01559,65.3808179 L195.60721,63.3879494 C197.292697,63.4129588 198.7687,64.525283 199.258078,66.1392647 C199.747456,67.7532464 199.137945,69.4986359 197.750463,70.4564564 C196.362982,71.4142768 194.515819,71.3648028 193.181538,70.3340832 C191.847257,69.3033637 191.331943,67.5278471 191.906918,65.9423728 L191.906924,65.9423728 Z" id="路径" stroke="#3F3D56" stroke-width="0.5"></path>
                    <path d="M194.597903,87.1262806 C196.449979,87.7984782 198.511354,86.9732769 199.388915,85.2083621 C200.266475,83.4434474 199.68088,81.3006196 198.027885,80.2280395 L197.573283,81.7594914 L197.250927,79.8396343 C197.24774,79.8381296 197.24444,79.8368774 197.241058,79.8358892 C195.939253,79.362502 194.483913,79.6202719 193.423631,80.5120319 C192.363348,81.403792 191.85934,82.7939502 192.101592,84.1584833 C192.343845,85.5230164 193.295524,86.6544473 194.597892,87.1262806 L194.597903,87.1262806 Z" id="路径" fill="#57B894" fill-rule="nonzero"></path>
                    <path d="M194.782309,86.4322804 C196.634385,87.104478 198.69576,86.2792767 199.573321,84.5143619 C200.450881,82.7494472 199.865286,80.6066194 198.212291,79.5340393 L197.757689,81.0654912 L197.435333,79.1456341 C197.432146,79.1441296 197.428846,79.1428774 197.425464,79.141889 C196.123659,78.6685018 194.668319,78.9262717 193.608037,79.8180317 C192.547754,80.7097917 192.043746,82.09995 192.285998,83.4644831 C192.528251,84.8290162 193.47993,85.9604471 194.782298,86.4322804 L194.782309,86.4322804 Z" id="路径" stroke="#3F3D56" stroke-width="0.5"></path>
                    <path d="M190.563095,93.5661552 C190.880123,95.3711166 192.417314,96.7072184 194.247866,96.7688998 C196.078418,96.8305811 197.701963,95.600982 198.139637,93.8214508 C198.577311,92.0419195 197.709477,90.1988771 196.05937,89.4035285 C194.409263,88.6081798 192.427926,89.0779273 191.309944,90.5295513 L193.036698,93.1300006 L190.677305,91.7497662 C190.494366,92.3373338 190.455196,92.9602798 190.563095,93.5661552 L190.563095,93.5661552 Z" id="路径" fill="#57B894" fill-rule="nonzero"></path>
                    <path d="M190.722708,93.0522827 C191.039736,94.857244 192.576927,96.1933458 194.407478,96.2550272 C196.23803,96.3167086 197.861576,95.0871095 198.29925,93.3075782 C198.736923,91.5280469 197.86909,89.6850046 196.218983,88.8896559 C194.568876,88.0943072 192.587539,88.5640547 191.469557,90.0156787 L193.196311,92.6161299 L190.836918,91.2358936 C190.653978,91.823461 190.614808,92.4464072 190.722708,93.0522827 Z" id="路径" stroke="#3F3D56" stroke-width="0.5"></path>
                    <path d="M1.67736685,87.6189979 C2.69372997,87.9887004 3.83261521,87.6757428 4.51769133,86.8384968 C5.20276745,86.0012509 5.28458005,84.822368 4.72172799,83.8984201 C4.15887593,82.9744722 3.07414951,82.5070253 2.016473,82.7326303 L2.08021043,84.0440047 L1.46012291,82.9201457 C0.851542415,83.2062628 0.381388603,83.7224305 0.152979516,84.3552192 C0.0718618414,84.5768767 0.0225484499,84.8089179 0.00651024209,85.0444216 C-0.0739092713,86.179724 0.608123482,87.2306493 1.67736685,87.6189979 L1.67736685,87.6189979 Z" id="路径" fill="#57B894" fill-rule="nonzero"></path>
                    <path d="M4.74557542,102.828726 C4.52668343,101.713458 5.47518436,100.724746 6.4120838,100.082075 C7.34898324,99.4394032 8.44370019,98.8079671 8.76337244,97.7173317 C9.22279702,96.1498968 7.85430912,94.7144227 6.78917877,93.4765293 C5.99895221,92.5578723 5.32033347,91.5487382 4.76752328,90.4702441 C4.5271863,90.0466189 4.36348934,89.5838631 4.2839702,89.1032853 C4.1999851,88.4085026 4.42307635,87.7171277 4.64782682,87.0543946 C5.39654562,84.8466372 6.19705649,82.6573794 7.0493594,80.4866211" id="路径" stroke="#3F3D56" stroke-width="0.5"></path>
                    <path d="M1.7822365,87.2813736 C2.79859833,87.6510727 3.93748027,87.338114 4.62255417,86.5008693 C5.30762807,85.6636246 5.38944048,84.4847445 4.82659043,83.5607982 C4.26374039,82.6368518 3.17901741,82.1694043 2.12134264,82.3950061 L2.18508007,83.7063823 L1.56499069,82.5825141 C0.956410076,82.8686309 0.486256209,83.3847987 0.2578473,84.0175876 C0.176730497,84.2392446 0.12741713,84.471285 0.111378026,84.706788 C0.0309531786,85.8420946 0.712988052,86.8930258 1.7822365,87.2813736 Z" id="路径" stroke="#3F3D56" stroke-width="0.5"></path>
                    <path d="M4.43434078,80.0337494 C4.72992638,79.2177106 5.42080969,78.6086844 6.26713222,78.4181104 L6.47679143,79.6647965 L6.86550093,78.3554456 C7.97289338,78.371879 8.94265013,79.1026952 9.26417861,80.1631077 C9.58570709,81.2235203 9.18524833,82.3702694 8.27365033,82.9995732 C7.36205233,83.628877 6.14843662,83.5963726 5.27179145,82.9191739 C4.39514628,82.2419753 4.05657497,81.0754326 4.43434078,80.0337494 L4.43434078,80.0337494 Z" id="路径" fill="#57B894" fill-rule="nonzero"></path>
                    <path d="M4.57416574,79.5835831 C4.86975185,78.7675451 5.56063508,78.1585197 6.40695717,77.9679459 L6.61661639,79.2146321 L7.00532588,77.9052812 C8.11271845,77.9217148 9.08247508,78.6525315 9.40400318,79.7129443 C9.72553128,80.7733571 9.32507195,81.9201062 8.41347352,82.5494096 C7.5018751,83.178713 6.28825925,83.1462078 5.41161443,82.4690085 C4.5349696,81.7918092 4.19639908,80.6252661 4.57416574,79.5835831 L4.57416574,79.5835831 Z" id="路径" stroke="#3F3D56" stroke-width="0.5"></path>
                    <path d="M6.34218808,93.5017968 C7.55903681,93.9434483 8.91340257,93.4012774 9.48997797,92.241694 C10.0665534,91.0821107 9.68180449,89.6742303 8.59575233,88.9695265 L8.29707076,89.9757176 L8.08527747,88.7143379 C8.0831848,88.7133501 8.08101802,88.7125278 8.07879702,88.7118784 C7.22344127,88.4006629 6.26710781,88.5699301 5.57036432,89.1558608 C4.87362082,89.7417916 4.54243354,90.6552731 4.70167044,91.5518941 C4.86090735,92.4485151 5.48635044,93.1919104 6.34218808,93.5017968 L6.34218808,93.5017968 Z" id="路径" fill="#57B894" fill-rule="nonzero"></path>
                    <path d="M6.46334078,93.0458265 C7.68018951,93.487478 9.03455527,92.9453071 9.61113067,91.7857237 C10.1877061,90.6261404 9.80295719,89.21826 8.71690503,88.5135562 L8.41822346,89.5197473 L8.20643017,88.2583658 C8.2043375,88.2573779 8.20217072,88.2565556 8.19994972,88.2559063 C6.87799549,87.7760845 5.4175867,88.4593722 4.93803538,89.7820721 C4.45848407,91.1047721 5.14138655,92.5660047 6.46334078,93.0458265 L6.46334078,93.0458265 Z" id="路径" stroke="#3F3D56" stroke-width="0.5"></path>
                    <path d="M3.69124767,97.7329122 C3.89954345,98.9188044 4.90950755,99.7966457 6.11221363,99.8371691 C7.3149197,99.8776924 8.38161728,99.0698211 8.66917435,97.9006358 C8.95673141,96.7314506 8.38654644,95.5205393 7.30239467,94.9979832 C6.21824291,94.475427 4.91646891,94.7840627 4.18193669,95.7378079 L5.31644507,97.4463522 L3.76628119,96.5395094 C3.64608784,96.9255531 3.62035446,97.3348407 3.69124767,97.7329122 L3.69124767,97.7329122 Z" id="路径" fill="#57B894" fill-rule="nonzero"></path>
                    <path d="M3.79611359,97.395288 C4.00440937,98.5811802 5.01437347,99.4590215 6.21707955,99.4995448 C7.41978562,99.5400682 8.48648321,98.7321968 8.77404027,97.5630116 C9.06159733,96.3938264 8.49141236,95.1829151 7.4072606,94.6603589 C6.32310883,94.1378028 5.02133483,94.4464384 4.28680261,95.4001837 L5.42131099,97.1087279 L3.87114525,96.2018852 C3.75095253,96.587929 3.72521978,96.9972166 3.79611359,97.395288 L3.79611359,97.395288 Z" id="路径" stroke="#3F3D56" stroke-width="0.5"></path>
                    <ellipse id="椭圆形" fill="#2F2E41" fill-rule="nonzero" cx="89.5616387" cy="59.4591274" rx="3.16573557" ry="4.0991453"></ellipse>
                    <ellipse id="椭圆形" fill="#2F2E41" fill-rule="nonzero" cx="106.786965" cy="59.5522897" rx="3.16573557" ry="4.0991453"></ellipse>
                    <path d="M104.366108,71.6634009 C104.366108,73.5154692 101.781378,75.017247 98.5932961,75.017247 C95.4052142,75.017247 92.8204842,73.5154692 92.8204842,71.6634009 C92.8204842,70.0591444 94.7590317,68.717606 97.3493482,68.3896744 C97.7617489,68.3352525 98.1773254,68.3084862 98.5932961,68.3095055 C99.290302,68.3073049 99.9854135,68.3822918 100.665922,68.5331444 C102.829795,69.0157256 104.366108,70.236153 104.366108,71.6634009 Z" id="路径" fill="#2F2E41" fill-rule="nonzero"></path>
                    <ellipse id="椭圆形" stroke="#3F3D56" stroke-width="0.5" cx="90.3065177" cy="58.5275034" rx="3.16573557" ry="4.0991453"></ellipse>
                    <ellipse id="椭圆形" stroke="#3F3D56" stroke-width="0.5" cx="107.531844" cy="58.6206658" rx="3.16573557" ry="4.0991453"></ellipse>
                    <ellipse id="椭圆形" stroke="#3F3D56" stroke-width="0.5" cx="99.338175" cy="70.7317769" rx="5.77281192" ry="3.35384615"></ellipse>
                    <path d="M100.734842,68.8126316 C100.736332,69.0469395 100.648413,69.2729907 100.489013,69.4446453 C100.336816,69.6108871 100.122152,69.7059867 99.8968343,69.7069906 L98.0346369,69.7069906 C97.5569464,69.6903522 97.1824558,69.2906702 97.196648,68.8126316 C97.1956761,68.6309702 97.2488391,68.453141 97.3493482,68.301852 C97.761441,68.2438241 98.177144,68.2152651 98.5932961,68.2163923 C99.2911393,68.2140925 99.9868188,68.2941439 100.665922,68.454888 C100.711887,68.5685283 100.73529,68.6900386 100.734842,68.8126316 Z" id="路径" fill="#FFFFFF" fill-rule="nonzero"></path>
                    <ellipse id="椭圆形" fill="#FFFFFF" fill-rule="nonzero" cx="90.3065177" cy="57.4095547" rx="1" ry="1"></ellipse>
                    <ellipse id="椭圆形" fill="#FFFFFF" fill-rule="nonzero" cx="107.624953" cy="57.4095547" rx="1" ry="1"></ellipse>
                    <ellipse id="椭圆形" fill="#FF5740" fill-rule="nonzero" opacity="0.3" cx="108.556052" cy="66.1668197" rx="1" ry="1"></ellipse>
                    <ellipse id="椭圆形" fill="#FF5740" fill-rule="nonzero" opacity="0.3" cx="85.8372439" cy="66.1668197" rx="1" ry="1"></ellipse>
                </g>
            </g>
        </g>
    </g>
</svg>