<?xml version="1.0" encoding="UTF-8"?>
<svg width="2268px" height="2268px" viewBox="0 0 2268 2268" version="1.1" xmlns="http://www.w3.org/2000/svg" xmlns:xlink="http://www.w3.org/1999/xlink">
    <title>大logo</title>
    <defs>
        <filter id="filter-1">
            <feColorMatrix in="SourceGraphic" type="matrix" values="0 0 0 0 1.000000 0 0 0 0 0.352941 0 0 0 0 0.000000 0 0 0 1.000000 0"></feColorMatrix>
        </filter>
        <linearGradient x1="50%" y1="0%" x2="50%" y2="99.9050132%" id="linearGradient-2">
            <stop stop-color="#FFCC00" offset="0%"></stop>
            <stop stop-color="#FFA500" offset="99.9683277%"></stop>
        </linearGradient>
        <linearGradient x1="10.6343123%" y1="2.41470853%" x2="57.3793733%" y2="100%" id="linearGradient-3">
            <stop stop-color="#FF9C31" offset="0.0712626689%"></stop>
            <stop stop-color="#FF521A" offset="100%"></stop>
        </linearGradient>
        <path d="M1945.0108,1381.03191 C1945.0108,1296.85113 1875.28642,1228.69814 1789.16469,1228.69814 C1716.30342,1228.69814 1655.13418,1277.61777 1638.0239,1343.5408 C1637.59615,1343.26206 1637.31098,1342.98331 1637.0258,1342.56519 C1625.90412,1364.586 1602.66266,1379.63819 1575.85656,1379.63819 C1538.21395,1379.63819 1507.55804,1349.81255 1507.55804,1312.87892 C1507.55804,1311.34583 1507.70062,1309.95211 1507.84321,1308.41902 C1526.09417,1153.71592 1639.16459,1027.44474 1789.0221,986.329957 C1784.60195,712.045548 1609.93453,478.318437 1363.97429,381.176043 C1370.67582,382.012276 1377.51993,382.569764 1384.36404,382.569764 C1470.48577,382.569764 1540.21015,314.416779 1540.21015,230.235995 C1540.21015,162.919242 1495.43826,105.776657 1433.4135,85.7070659 C1306.94003,30.7944353 1166.92093,0.132560354 1019.62996,0.132560354 C818.441609,0.132560354 630.798899,57.1357733 472.814003,155.393145 C472.814003,155.393145 472.814003,155.393145 472.814003,155.393145 C455.56114,166.124802 438.736033,177.274574 422.338684,188.981836 C421.055413,189.818069 419.772142,190.793674 418.488872,191.629907 C411.359589,196.786677 404.230307,201.943446 397.24361,207.239588 C396.245511,207.936449 395.389997,208.63331 394.391897,209.330171 C378.422305,221.455549 362.88047,233.999043 347.766391,246.960654 C346.768292,247.796887 345.912778,248.63312 344.914678,249.469353 C338.355739,255.044239 331.939384,260.758497 325.52303,266.612128 C324.23976,267.727105 323.099074,268.842083 321.815804,269.95706 C314.829107,276.368179 307.984996,282.779299 301.28347,289.32979 C301.140885,289.469162 300.855714,289.747907 300.713128,289.887279 C293.44126,296.995259 286.169392,304.242611 279.04011,311.629335 C278.754938,311.90808 278.612353,312.186824 278.327181,312.326196 C271.910827,319.01606 265.494473,325.705924 259.220705,332.674531 C257.937434,334.068253 256.654163,335.461975 255.513478,336.855696 C249.952638,342.988071 244.534383,349.259818 239.116129,355.531566 C238.118029,356.785915 237.11993,357.900892 235.979245,359.155242 C223.289122,374.068063 211.026756,389.399 199.192148,405.008682 C198.194048,406.402404 197.053363,407.796125 196.055264,409.189847 C191.207352,415.600966 186.502025,422.012085 181.939285,428.562577 C180.656014,430.374415 179.372743,432.046881 178.232058,433.858719 C173.24156,440.966699 168.393648,448.074679 163.688322,455.182659 C163.117979,456.018892 162.547637,456.855125 161.977294,457.691358 C156.55904,465.914315 151.140785,474.276645 146.007702,482.778347 C145.437359,483.753952 144.867017,484.729557 144.296674,485.56579 C139.876519,492.813142 135.59895,500.060494 131.32138,507.307847 C130.180695,509.398429 128.897424,511.489011 127.756739,513.579594 C124.049512,520.130085 120.342285,526.819949 116.777644,533.509812 C115.779545,535.461023 114.63886,537.412233 113.64076,539.224071 C104.657864,556.227474 96.1027256,573.648994 87.9753437,591.209886 C86.9772442,593.300469 85.9791447,595.530423 85.1236308,597.760378 C82.1293322,604.450241 79.1350337,611.140105 76.2833207,617.969341 C75.2852212,620.47804 74.144536,622.986738 73.1464365,625.495437 C70.1521379,632.74279 67.300425,640.129514 64.4487121,647.516238 C63.8783695,649.188704 63.1654413,650.721798 62.5950987,652.394264 C59.1730432,661.453454 55.8935733,670.652017 52.7566891,679.711207 C52.1863465,681.383673 51.6160039,683.195511 51.0456613,684.867977 C48.6217054,692.254701 46.1977494,699.641426 43.7737934,707.167522 C42.9182795,709.954966 42.0627656,712.742409 41.2072518,715.529852 C39.2110527,722.359088 37.2148537,729.188323 35.3612403,736.017559 C34.648312,738.66563 33.9353838,741.313701 33.2224556,743.961772 C28.231958,762.637642 23.8118029,781.452883 19.8194048,800.546869 C19.2490622,803.334312 18.6787197,806.121755 18.1083771,808.909198 C16.8251063,815.877806 15.5418354,822.707042 14.2585646,829.67565 C13.688222,832.741838 13.2604651,835.808025 12.6901225,839.013585 C11.4068517,846.539681 10.4087522,854.065778 9.268067,861.591874 C8.98289571,863.821829 8.55513877,866.051784 8.26996748,868.281738 C6.98669667,878.037789 5.8460115,887.654468 4.84791197,897.410519 C4.56274068,899.640474 4.42015503,902.0098 4.27756939,904.239755 C3.56464116,911.765852 2.85171292,919.43132 2.42395599,927.096789 C2.13878469,930.302349 1.99619905,933.647281 1.8536134,936.85284 C1.42585646,943.96082 1.14068517,951.0688 0.855513877,958.176781 C0.712928231,961.242968 0.570342585,964.309156 0.570342585,967.235971 C0.285171292,977.270766 0,987.16619 0,997.200985 C0,1005.00583 0.142585646,1012.81067 0.285171292,1020.61551 C0.285171292,1022.98483 0.427756939,1025.49353 0.570342585,1027.86286 C0.712928231,1033.29837 0.998099524,1038.87326 1.14068517,1044.30877 C1.28327082,1046.95685 1.42585646,1049.60492 1.56844211,1052.11362 C1.8536134,1057.82787 2.28137034,1063.54213 2.70912728,1069.25639 C2.85171292,1071.34697 2.99429857,1073.43756 3.13688422,1075.38877 C3.7072268,1083.05423 4.42015503,1090.7197 5.27566891,1098.2458 C5.41825456,1099.77889 5.5608402,1101.31199 5.8460115,1102.70571 C6.55893973,1108.83808 7.27186796,1114.97046 7.98479619,1121.10283 C8.26996748,1123.61153 8.69772442,1126.12023 8.98289571,1128.7683 C9.69582394,1133.92507 10.4087522,1139.22121 11.2642661,1144.37798 C11.692023,1146.88668 11.9771943,1149.39538 12.4049512,1152.04345 C13.4030507,1158.03646 14.4011503,1163.89009 15.3992498,1169.88309 C15.6844211,1171.41618 15.9695924,1173.08865 16.2547637,1174.62174 C17.5380345,1182.00847 19.1064766,1189.25582 20.5323331,1196.64254 C20.96009,1198.8725 21.5304326,1200.96308 21.9581895,1203.19304 C23.0988747,1208.48918 24.2395599,1213.64595 25.380245,1218.80272 C25.9505876,1221.45079 26.6635158,1224.09886 27.2338584,1226.74693 C28.3745436,1231.62496 29.6578144,1236.64235 30.9410852,1241.52038 C31.5114278,1244.02908 32.224356,1246.39841 32.7946986,1248.9071 C34.648312,1255.59697 36.5019254,1262.28683 38.3555388,1268.97669 C38.6407101,1270.09167 39.0684671,1271.20665 39.3536384,1272.32163 C41.2072518,1278.73275 43.2034508,1285.00449 45.1996499,1291.41561 C46.0551637,1293.92431 46.9106776,1296.57238 47.6236058,1299.08108 C49.0494623,1303.68036 50.6179044,1308.27964 52.1863465,1312.73955 C53.184446,1315.527 54.0399599,1318.17507 55.0380594,1320.96251 C56.6065016,1325.56179 58.3175293,1330.16107 60.0285571,1334.76035 C60.8840709,1337.12968 61.7395848,1339.49901 62.5950987,1341.86833 C65.1616403,1348.5582 67.728182,1355.10869 70.2947236,1361.65918 C71.1502375,1363.88914 72.148337,1365.97972 73.0038509,1368.0703 C74.8574643,1372.66958 76.8536633,1377.26886 78.8498624,1381.86814 C79.9905475,1384.65559 81.2738184,1387.44303 82.5570892,1390.23047 C84.2681169,1394.27227 86.1217303,1398.17469 87.9753437,1402.21648 C89.2586145,1405.00392 90.5418854,1407.93074 91.8251562,1410.71818 C93.8213552,1415.03872 95.8175543,1419.35925 97.956339,1423.54042 C99.0970241,1425.90975 100.237709,1428.27907 101.378394,1430.6484 C104.372693,1436.78077 107.509577,1442.91315 110.646461,1448.90615 C112.072318,1451.6936 113.64076,1454.48104 115.066617,1457.12911 C117.062816,1460.75279 118.916429,1464.51583 121.055214,1468.13951 C122.766241,1471.06633 124.334684,1474.13251 126.045711,1477.05933 C128.04191,1480.54363 129.895524,1483.88856 131.891723,1487.37287 C133.602751,1490.29968 135.313778,1493.2265 137.024806,1496.15331 C139.306176,1500.05573 141.587547,1503.81878 144.011503,1507.7212 C146.72063,1512.18111 149.572343,1516.64102 152.424056,1521.10093 C154.562841,1524.58523 156.844211,1528.06954 158.982996,1531.41447 C160.979195,1534.48066 163.117979,1537.54685 165.114178,1540.7524 C167.110377,1543.67922 168.963991,1546.60604 170.96019,1549.39348 C173.098975,1552.59904 175.237759,1555.66523 177.51913,1558.87079 C179.515329,1561.65823 181.368942,1564.44567 183.365141,1567.09374 C185.646511,1570.2993 187.785296,1573.36549 190.066666,1576.57105 C192.205451,1579.35849 194.344236,1582.28531 196.340435,1585.07275 C200.475419,1590.64764 204.752988,1596.08315 209.030557,1601.51867 C210.884171,1603.88799 212.737784,1606.25732 214.591398,1608.62665 C217.157939,1611.83221 219.867066,1615.17714 222.433608,1618.3827 C224.287222,1620.61265 226.140835,1622.84261 227.994448,1625.21193 C230.703576,1628.55686 233.412703,1631.76242 236.264416,1634.96798 C237.975444,1636.91919 239.686471,1638.8704 241.397499,1640.82161 C247.956439,1648.34771 254.515379,1655.73444 261.216904,1663.12116 C261.644661,1663.67865 262.215003,1664.23614 262.64276,1664.65425 C265.779645,1668.13856 269.059114,1671.48349 272.195999,1674.82842 C273.907026,1676.64026 275.618054,1678.31273 277.186496,1680.12456 C280.32338,1683.4695 283.60285,1686.67506 286.88232,1690.01999 C288.593348,1691.69245 290.16179,1693.36492 291.872818,1695.03738 C295.294873,1698.38232 298.716929,1701.86662 302.138984,1705.21155 C302.851913,1705.90841 303.564841,1706.60527 304.420355,1707.30213 C312.262565,1714.82823 320.104776,1722.21496 328.232158,1729.46231 C329.087671,1730.15917 329.943185,1730.9954 330.656114,1731.69226 C334.36334,1735.03719 338.213153,1738.38213 342.062965,1741.72706 C343.488822,1742.98141 345.057264,1744.23576 346.48312,1745.49011 C350.332933,1748.83504 354.182745,1752.0406 358.032558,1755.24616 C359.315828,1756.22176 360.456514,1757.33674 361.739784,1758.31234 C375.00025,1769.18337 388.4033,1779.77566 402.234108,1790.0892 C403.089622,1790.78606 403.945136,1791.34355 404.80065,1792.04041 C409.078219,1795.24597 413.498374,1798.45153 417.775943,1801.51771 C419.059214,1802.35395 420.199899,1803.32955 421.48317,1804.16578 C425.903325,1807.37134 430.466066,1810.43753 434.886221,1813.50372 C435.313978,1813.78246 435.741735,1814.06121 436.312077,1814.47932 C451.140985,1824.65349 466.255063,1834.40954 481.654313,1843.74748 C482.509827,1844.30497 483.507926,1844.86246 484.36344,1845.41994 C489.211352,1848.34676 493.916679,1851.1342 498.764591,1853.92165 C499.76269,1854.47913 500.76079,1855.03662 501.758889,1855.59411 C522.861565,1867.71949 544.391997,1879.28738 566.350187,1889.87966 C567.348286,1890.29778 568.346386,1890.85527 569.2019,1891.27338 C574.477569,1893.78208 579.610652,1896.29078 584.886321,1898.66011 C585.456663,1898.93885 586.169592,1899.2176 586.739934,1899.49634 C603.707626,1907.30118 620.817904,1914.54853 638.213353,1921.51714 C638.498524,1921.65651 638.926281,1921.79589 639.211452,1921.93526 C644.629707,1924.02584 650.190547,1926.11642 655.751387,1928.20701 C656.749487,1928.62512 657.890172,1929.04324 658.888271,1929.32198 C771.24576,1970.85489 892.871317,1993.71192 1020.05771,1993.71192 C1407.32033,1993.71192 1744.10762,1782.70247 1916.92143,1472.04193 C1916.06591,1471.90256 1915.35299,1471.62381 1914.49747,1471.48444 C1933.46136,1446.81557 1945.0108,1415.17809 1945.0108,1381.03191 Z M560.789347,1041.80008 C560.219004,1037.34017 559.791247,1032.88026 559.506076,1028.42035 C618.251362,872.323531 715.779944,734.623838 840.68497,626.471042 C876.616553,616.01813 914.829506,610.1645 954.32573,610.1645 C1173.05211,610.1645 1350.42866,783.543465 1350.42866,997.340357 C1350.42866,1211.13725 1173.05211,1384.51621 954.32573,1384.51621 C945.770591,1384.51621 937.215453,1384.0981 928.8029,1383.67998 C778.660214,1301.72915 651.901575,1183.82031 560.789347,1041.80008 Z" id="path-4"></path>
        <linearGradient x1="23.7398848%" y1="-34.865978%" x2="77.0909057%" y2="100%" id="linearGradient-6">
            <stop stop-color="#FF521A" stop-opacity="0.719460227" offset="0%"></stop>
            <stop stop-color="#FF8C31" stop-opacity="0" offset="100%"></stop>
        </linearGradient>
        <linearGradient x1="50%" y1="0%" x2="50%" y2="100%" id="linearGradient-7">
            <stop stop-color="#FF8C31" offset="0%"></stop>
            <stop stop-color="#FF521A" offset="100%"></stop>
        </linearGradient>
        <path d="M1945.0108,1381.03191 C1945.0108,1296.85113 1875.28642,1228.69814 1789.16469,1228.69814 C1716.30342,1228.69814 1655.13418,1277.61777 1638.0239,1343.5408 C1637.59615,1343.26206 1637.31098,1342.98331 1637.0258,1342.56519 C1625.90412,1364.586 1602.66266,1379.63819 1575.85656,1379.63819 C1538.21395,1379.63819 1507.55804,1349.81255 1507.55804,1312.87892 C1507.55804,1311.34583 1507.70062,1309.95211 1507.84321,1308.41902 C1526.09417,1153.71592 1639.16459,1027.44474 1789.0221,986.329957 C1784.60195,712.045548 1609.93453,478.318437 1363.97429,381.176043 C1370.67582,382.012276 1377.51993,382.569764 1384.36404,382.569764 C1470.48577,382.569764 1540.21015,314.416779 1540.21015,230.235995 C1540.21015,162.919242 1495.43826,105.776657 1433.4135,85.7070659 C1306.94003,30.7944353 1166.92093,0.132560354 1019.62996,0.132560354 C818.441609,0.132560354 630.798899,57.1357733 472.814003,155.393145 C472.814003,155.393145 472.814003,155.393145 472.814003,155.393145 C455.56114,166.124802 438.736033,177.274574 422.338684,188.981836 C421.055413,189.818069 419.772142,190.793674 418.488872,191.629907 C411.359589,196.786677 404.230307,201.943446 397.24361,207.239588 C396.245511,207.936449 395.389997,208.63331 394.391897,209.330171 C378.422305,221.455549 362.88047,233.999043 347.766391,246.960654 C346.768292,247.796887 345.912778,248.63312 344.914678,249.469353 C338.355739,255.044239 331.939384,260.758497 325.52303,266.612128 C324.23976,267.727105 323.099074,268.842083 321.815804,269.95706 C314.829107,276.368179 307.984996,282.779299 301.28347,289.32979 C301.140885,289.469162 300.855714,289.747907 300.713128,289.887279 C293.44126,296.995259 286.169392,304.242611 279.04011,311.629335 C278.754938,311.90808 278.612353,312.186824 278.327181,312.326196 C271.910827,319.01606 265.494473,325.705924 259.220705,332.674531 C257.937434,334.068253 256.654163,335.461975 255.513478,336.855696 C249.952638,342.988071 244.534383,349.259818 239.116129,355.531566 C238.118029,356.785915 237.11993,357.900892 235.979245,359.155242 C223.289122,374.068063 211.026756,389.399 199.192148,405.008682 C198.194048,406.402404 197.053363,407.796125 196.055264,409.189847 C191.207352,415.600966 186.502025,422.012085 181.939285,428.562577 C180.656014,430.374415 179.372743,432.046881 178.232058,433.858719 C173.24156,440.966699 168.393648,448.074679 163.688322,455.182659 C163.117979,456.018892 162.547637,456.855125 161.977294,457.691358 C156.55904,465.914315 151.140785,474.276645 146.007702,482.778347 C145.437359,483.753952 144.867017,484.729557 144.296674,485.56579 C139.876519,492.813142 135.59895,500.060494 131.32138,507.307847 C130.180695,509.398429 128.897424,511.489011 127.756739,513.579594 C124.049512,520.130085 120.342285,526.819949 116.777644,533.509812 C115.779545,535.461023 114.63886,537.412233 113.64076,539.224071 C104.657864,556.227474 96.1027256,573.648994 87.9753437,591.209886 C86.9772442,593.300469 85.9791447,595.530423 85.1236308,597.760378 C82.1293322,604.450241 79.1350337,611.140105 76.2833207,617.969341 C75.2852212,620.47804 74.144536,622.986738 73.1464365,625.495437 C70.1521379,632.74279 67.300425,640.129514 64.4487121,647.516238 C63.8783695,649.188704 63.1654413,650.721798 62.5950987,652.394264 C59.1730432,661.453454 55.8935733,670.652017 52.7566891,679.711207 C52.1863465,681.383673 51.6160039,683.195511 51.0456613,684.867977 C48.6217054,692.254701 46.1977494,699.641426 43.7737934,707.167522 C42.9182795,709.954966 42.0627656,712.742409 41.2072518,715.529852 C39.2110527,722.359088 37.2148537,729.188323 35.3612403,736.017559 C34.648312,738.66563 33.9353838,741.313701 33.2224556,743.961772 C28.231958,762.637642 23.8118029,781.452883 19.8194048,800.546869 C19.2490622,803.334312 18.6787197,806.121755 18.1083771,808.909198 C16.8251063,815.877806 15.5418354,822.707042 14.2585646,829.67565 C13.688222,832.741838 13.2604651,835.808025 12.6901225,839.013585 C11.4068517,846.539681 10.4087522,854.065778 9.268067,861.591874 C8.98289571,863.821829 8.55513877,866.051784 8.26996748,868.281738 C6.98669667,878.037789 5.8460115,887.654468 4.84791197,897.410519 C4.56274068,899.640474 4.42015503,902.0098 4.27756939,904.239755 C3.56464116,911.765852 2.85171292,919.43132 2.42395599,927.096789 C2.13878469,930.302349 1.99619905,933.647281 1.8536134,936.85284 C1.42585646,943.96082 1.14068517,951.0688 0.855513877,958.176781 C0.712928231,961.242968 0.570342585,964.309156 0.570342585,967.235971 C0.285171292,977.270766 2.27373675e-13,987.16619 2.27373675e-13,997.200985 C2.27373675e-13,1005.00583 0.142585646,1012.81067 0.285171292,1020.61551 C0.285171292,1022.98483 0.427756939,1025.49353 0.570342585,1027.86286 C0.712928231,1033.29837 0.998099524,1038.87326 1.14068517,1044.30877 C1.28327082,1046.95685 1.42585646,1049.60492 1.56844211,1052.11362 C1.8536134,1057.82787 2.28137034,1063.54213 2.70912728,1069.25639 C2.85171292,1071.34697 2.99429857,1073.43756 3.13688422,1075.38877 C3.7072268,1083.05423 4.42015503,1090.7197 5.27566891,1098.2458 C5.41825456,1099.77889 5.5608402,1101.31199 5.8460115,1102.70571 C6.55893973,1108.83808 7.27186796,1114.97046 7.98479619,1121.10283 C8.26996748,1123.61153 8.69772442,1126.12023 8.98289571,1128.7683 C9.69582394,1133.92507 10.4087522,1139.22121 11.2642661,1144.37798 C11.692023,1146.88668 11.9771943,1149.39538 12.4049512,1152.04345 C13.4030507,1158.03646 14.4011503,1163.89009 15.3992498,1169.88309 C15.6844211,1171.41618 15.9695924,1173.08865 16.2547637,1174.62174 C17.5380345,1182.00847 19.1064766,1189.25582 20.5323331,1196.64254 C20.96009,1198.8725 21.5304326,1200.96308 21.9581895,1203.19304 C23.0988747,1208.48918 24.2395599,1213.64595 25.380245,1218.80272 C25.9505876,1221.45079 26.6635158,1224.09886 27.2338584,1226.74693 C28.3745436,1231.62496 29.6578144,1236.64235 30.9410852,1241.52038 C31.5114278,1244.02908 32.224356,1246.39841 32.7946986,1248.9071 C34.648312,1255.59697 36.5019254,1262.28683 38.3555388,1268.97669 C38.6407101,1270.09167 39.0684671,1271.20665 39.3536384,1272.32163 C41.2072518,1278.73275 43.2034508,1285.00449 45.1996499,1291.41561 C46.0551637,1293.92431 46.9106776,1296.57238 47.6236058,1299.08108 C49.0494623,1303.68036 50.6179044,1308.27964 52.1863465,1312.73955 C53.184446,1315.527 54.0399599,1318.17507 55.0380594,1320.96251 C56.6065016,1325.56179 58.3175293,1330.16107 60.0285571,1334.76035 C60.8840709,1337.12968 61.7395848,1339.49901 62.5950987,1341.86833 C65.1616403,1348.5582 67.728182,1355.10869 70.2947236,1361.65918 C71.1502375,1363.88914 72.148337,1365.97972 73.0038509,1368.0703 C74.8574643,1372.66958 76.8536633,1377.26886 78.8498624,1381.86814 C79.9905475,1384.65559 81.2738184,1387.44303 82.5570892,1390.23047 C84.2681169,1394.27227 86.1217303,1398.17469 87.9753437,1402.21648 C89.2586145,1405.00392 90.5418854,1407.93074 91.8251562,1410.71818 C93.8213552,1415.03872 95.8175543,1419.35925 97.956339,1423.54042 C99.0970241,1425.90975 100.237709,1428.27907 101.378394,1430.6484 C104.372693,1436.78077 107.509577,1442.91315 110.646461,1448.90615 C112.072318,1451.6936 113.64076,1454.48104 115.066617,1457.12911 C117.062816,1460.75279 118.916429,1464.51583 121.055214,1468.13951 C122.766241,1471.06633 124.334684,1474.13251 126.045711,1477.05933 C128.04191,1480.54363 129.895524,1483.88856 131.891723,1487.37287 C133.602751,1490.29968 135.313778,1493.2265 137.024806,1496.15331 C139.306176,1500.05573 141.587547,1503.81878 144.011503,1507.7212 C146.72063,1512.18111 149.572343,1516.64102 152.424056,1521.10093 C154.562841,1524.58523 156.844211,1528.06954 158.982996,1531.41447 C160.979195,1534.48066 163.117979,1537.54685 165.114178,1540.7524 C167.110377,1543.67922 168.963991,1546.60604 170.96019,1549.39348 C173.098975,1552.59904 175.237759,1555.66523 177.51913,1558.87079 C179.515329,1561.65823 181.368942,1564.44567 183.365141,1567.09374 C185.646511,1570.2993 187.785296,1573.36549 190.066666,1576.57105 C192.205451,1579.35849 194.344236,1582.28531 196.340435,1585.07275 C200.475419,1590.64764 204.752988,1596.08315 209.030557,1601.51867 C210.884171,1603.88799 212.737784,1606.25732 214.591398,1608.62665 C217.157939,1611.83221 219.867066,1615.17714 222.433608,1618.3827 C224.287222,1620.61265 226.140835,1622.84261 227.994448,1625.21193 C230.703576,1628.55686 233.412703,1631.76242 236.264416,1634.96798 C237.975444,1636.91919 239.686471,1638.8704 241.397499,1640.82161 C247.956439,1648.34771 254.515379,1655.73444 261.216904,1663.12116 C261.644661,1663.67865 262.215003,1664.23614 262.64276,1664.65425 C265.779645,1668.13856 269.059114,1671.48349 272.195999,1674.82842 C273.907026,1676.64026 275.618054,1678.31273 277.186496,1680.12456 C280.32338,1683.4695 283.60285,1686.67506 286.88232,1690.01999 C288.593348,1691.69245 290.16179,1693.36492 291.872818,1695.03738 C295.294873,1698.38232 298.716929,1701.86662 302.138984,1705.21155 C302.851913,1705.90841 303.564841,1706.60527 304.420355,1707.30213 C312.262565,1714.82823 320.104776,1722.21496 328.232158,1729.46231 C329.087671,1730.15917 329.943185,1730.9954 330.656114,1731.69226 C334.36334,1735.03719 338.213153,1738.38213 342.062965,1741.72706 C343.488822,1742.98141 345.057264,1744.23576 346.48312,1745.49011 C350.332933,1748.83504 354.182745,1752.0406 358.032558,1755.24616 C359.315828,1756.22176 360.456514,1757.33674 361.739784,1758.31234 C375.00025,1769.18337 388.4033,1779.77566 402.234108,1790.0892 C403.089622,1790.78606 403.945136,1791.34355 404.80065,1792.04041 C409.078219,1795.24597 413.498374,1798.45153 417.775943,1801.51771 C419.059214,1802.35395 420.199899,1803.32955 421.48317,1804.16578 C425.903325,1807.37134 430.466066,1810.43753 434.886221,1813.50372 C435.313978,1813.78246 435.741735,1814.06121 436.312077,1814.47932 C451.140985,1824.65349 466.255063,1834.40954 481.654313,1843.74748 C482.509827,1844.30497 483.507926,1844.86246 484.36344,1845.41994 C489.211352,1848.34676 493.916679,1851.1342 498.764591,1853.92165 C499.76269,1854.47913 500.76079,1855.03662 501.758889,1855.59411 C522.861565,1867.71949 544.391997,1879.28738 566.350187,1889.87966 C567.348286,1890.29778 568.346386,1890.85527 569.2019,1891.27338 C574.477569,1893.78208 579.610652,1896.29078 584.886321,1898.66011 C585.456663,1898.93885 586.169592,1899.2176 586.739934,1899.49634 C603.707626,1907.30118 620.817904,1914.54853 638.213353,1921.51714 C638.498524,1921.65651 638.926281,1921.79589 639.211452,1921.93526 C644.629707,1924.02584 650.190547,1926.11642 655.751387,1928.20701 C656.749487,1928.62512 657.890172,1929.04324 658.888271,1929.32198 C771.24576,1970.85489 892.871317,1993.71192 1020.05771,1993.71192 C1407.32033,1993.71192 1744.10762,1782.70247 1916.92143,1472.04193 C1916.06591,1471.90256 1915.35299,1471.62381 1914.49747,1471.48444 C1933.46136,1446.81557 1945.0108,1415.17809 1945.0108,1381.03191 Z M560.789347,1041.80008 C560.219004,1037.34017 559.791247,1032.88026 559.506076,1028.42035 C618.251362,872.323531 715.779944,734.623838 840.68497,626.471042 C876.616553,616.01813 914.829506,610.1645 954.32573,610.1645 C1173.05211,610.1645 1350.42866,783.543465 1350.42866,997.340357 C1350.42866,1211.13725 1173.05211,1384.51621 954.32573,1384.51621 C945.770591,1384.51621 937.215453,1384.0981 928.8029,1383.67998 C778.660214,1301.72915 651.901575,1183.82031 560.789347,1041.80008 Z" id="path-8"></path>
    </defs>
    <g id="官网" stroke="none" stroke-width="1" fill="none" fill-rule="evenodd">
        <g id="切图位置和切图" transform="translate(-1220.000000, 0.000000)">
            <g id="编组备份" transform="translate(1220.000000, 0.000000)">
                <g id="编组-2" transform="translate(-283.000000, -303.000000)">
                    <g id="logo" transform="translate(1416.685177, 1437.370767) rotate(-30.000000) translate(-1416.685177, -1437.370767) translate(400.185177, 365.370767)">
                        <g filter="url(#filter-1)" id="编组-25" opacity="0.1">
                            <g transform="translate(0.929997, 148.021470)">
                                <g id="编组-18" transform="translate(0.031395, 0.684860)">
                                    <path d="M1945.0108,1381.03191 C1945.0108,1296.85113 1875.28642,1228.69814 1789.16469,1228.69814 C1716.30342,1228.69814 1655.13418,1277.61777 1638.0239,1343.5408 C1637.59615,1343.26206 1637.31098,1342.98331 1637.0258,1342.56519 C1625.90412,1364.586 1602.66266,1379.63819 1575.85656,1379.63819 C1538.21395,1379.63819 1507.55804,1349.81255 1507.55804,1312.87892 C1507.55804,1311.34583 1507.70062,1309.95211 1507.84321,1308.41902 C1526.09417,1153.71592 1639.16459,1027.44474 1789.0221,986.329957 C1784.60195,712.045548 1609.93453,478.318437 1363.97429,381.176043 C1370.67582,382.012276 1377.51993,382.569764 1384.36404,382.569764 C1470.48577,382.569764 1540.21015,314.416779 1540.21015,230.235995 C1540.21015,162.919242 1495.43826,105.776657 1433.4135,85.7070659 C1306.94003,30.7944353 1166.92093,0.132560354 1019.62996,0.132560354 C818.441609,0.132560354 630.798899,57.1357733 472.814003,155.393145 C472.814003,155.393145 472.814003,155.393145 472.814003,155.393145 C455.56114,166.124802 438.736033,177.274574 422.338684,188.981836 C421.055413,189.818069 419.772142,190.793674 418.488872,191.629907 C411.359589,196.786677 404.230307,201.943446 397.24361,207.239588 C396.245511,207.936449 395.389997,208.63331 394.391897,209.330171 C378.422305,221.455549 362.88047,233.999043 347.766391,246.960654 C346.768292,247.796887 345.912778,248.63312 344.914678,249.469353 C338.355739,255.044239 331.939384,260.758497 325.52303,266.612128 C324.23976,267.727105 323.099074,268.842083 321.815804,269.95706 C314.829107,276.368179 307.984996,282.779299 301.28347,289.32979 C301.140885,289.469162 300.855714,289.747907 300.713128,289.887279 C293.44126,296.995259 286.169392,304.242611 279.04011,311.629335 C278.754938,311.90808 278.612353,312.186824 278.327181,312.326196 C271.910827,319.01606 265.494473,325.705924 259.220705,332.674531 C257.937434,334.068253 256.654163,335.461975 255.513478,336.855696 C249.952638,342.988071 244.534383,349.259818 239.116129,355.531566 C238.118029,356.785915 237.11993,357.900892 235.979245,359.155242 C223.289122,374.068063 211.026756,389.399 199.192148,405.008682 C198.194048,406.402404 197.053363,407.796125 196.055264,409.189847 C191.207352,415.600966 186.502025,422.012085 181.939285,428.562577 C180.656014,430.374415 179.372743,432.046881 178.232058,433.858719 C173.24156,440.966699 168.393648,448.074679 163.688322,455.182659 C163.117979,456.018892 162.547637,456.855125 161.977294,457.691358 C156.55904,465.914315 151.140785,474.276645 146.007702,482.778347 C145.437359,483.753952 144.867017,484.729557 144.296674,485.56579 C139.876519,492.813142 135.59895,500.060494 131.32138,507.307847 C130.180695,509.398429 128.897424,511.489011 127.756739,513.579594 C124.049512,520.130085 120.342285,526.819949 116.777644,533.509812 C115.779545,535.461023 114.63886,537.412233 113.64076,539.224071 C104.657864,556.227474 96.1027256,573.648994 87.9753437,591.209886 C86.9772442,593.300469 85.9791447,595.530423 85.1236308,597.760378 C82.1293322,604.450241 79.1350337,611.140105 76.2833207,617.969341 C75.2852212,620.47804 74.144536,622.986738 73.1464365,625.495437 C70.1521379,632.74279 67.300425,640.129514 64.4487121,647.516238 C63.8783695,649.188704 63.1654413,650.721798 62.5950987,652.394264 C59.1730432,661.453454 55.8935733,670.652017 52.7566891,679.711207 C52.1863465,681.383673 51.6160039,683.195511 51.0456613,684.867977 C48.6217054,692.254701 46.1977494,699.641426 43.7737934,707.167522 C42.9182795,709.954966 42.0627656,712.742409 41.2072518,715.529852 C39.2110527,722.359088 37.2148537,729.188323 35.3612403,736.017559 C34.648312,738.66563 33.9353838,741.313701 33.2224556,743.961772 C28.231958,762.637642 23.8118029,781.452883 19.8194048,800.546869 C19.2490622,803.334312 18.6787197,806.121755 18.1083771,808.909198 C16.8251063,815.877806 15.5418354,822.707042 14.2585646,829.67565 C13.688222,832.741838 13.2604651,835.808025 12.6901225,839.013585 C11.4068517,846.539681 10.4087522,854.065778 9.268067,861.591874 C8.98289571,863.821829 8.55513877,866.051784 8.26996748,868.281738 C6.98669667,878.037789 5.8460115,887.654468 4.84791197,897.410519 C4.56274068,899.640474 4.42015503,902.0098 4.27756939,904.239755 C3.56464116,911.765852 2.85171292,919.43132 2.42395599,927.096789 C2.13878469,930.302349 1.99619905,933.647281 1.8536134,936.85284 C1.42585646,943.96082 1.14068517,951.0688 0.855513877,958.176781 C0.712928231,961.242968 0.570342585,964.309156 0.570342585,967.235971 C0.285171292,977.270766 0,987.16619 0,997.200985 C0,1005.00583 0.142585646,1012.81067 0.285171292,1020.61551 C0.285171292,1022.98483 0.427756939,1025.49353 0.570342585,1027.86286 C0.712928231,1033.29837 0.998099524,1038.87326 1.14068517,1044.30877 C1.28327082,1046.95685 1.42585646,1049.60492 1.56844211,1052.11362 C1.8536134,1057.82787 2.28137034,1063.54213 2.70912728,1069.25639 C2.85171292,1071.34697 2.99429857,1073.43756 3.13688422,1075.38877 C3.7072268,1083.05423 4.42015503,1090.7197 5.27566891,1098.2458 C5.41825456,1099.77889 5.5608402,1101.31199 5.8460115,1102.70571 C6.55893973,1108.83808 7.27186796,1114.97046 7.98479619,1121.10283 C8.26996748,1123.61153 8.69772442,1126.12023 8.98289571,1128.7683 C9.69582394,1133.92507 10.4087522,1139.22121 11.2642661,1144.37798 C11.692023,1146.88668 11.9771943,1149.39538 12.4049512,1152.04345 C13.4030507,1158.03646 14.4011503,1163.89009 15.3992498,1169.88309 C15.6844211,1171.41618 15.9695924,1173.08865 16.2547637,1174.62174 C17.5380345,1182.00847 19.1064766,1189.25582 20.5323331,1196.64254 C20.96009,1198.8725 21.5304326,1200.96308 21.9581895,1203.19304 C23.0988747,1208.48918 24.2395599,1213.64595 25.380245,1218.80272 C25.9505876,1221.45079 26.6635158,1224.09886 27.2338584,1226.74693 C28.3745436,1231.62496 29.6578144,1236.64235 30.9410852,1241.52038 C31.5114278,1244.02908 32.224356,1246.39841 32.7946986,1248.9071 C34.648312,1255.59697 36.5019254,1262.28683 38.3555388,1268.97669 C38.6407101,1270.09167 39.0684671,1271.20665 39.3536384,1272.32163 C41.2072518,1278.73275 43.2034508,1285.00449 45.1996499,1291.41561 C46.0551637,1293.92431 46.9106776,1296.57238 47.6236058,1299.08108 C49.0494623,1303.68036 50.6179044,1308.27964 52.1863465,1312.73955 C53.184446,1315.527 54.0399599,1318.17507 55.0380594,1320.96251 C56.6065016,1325.56179 58.3175293,1330.16107 60.0285571,1334.76035 C60.8840709,1337.12968 61.7395848,1339.49901 62.5950987,1341.86833 C65.1616403,1348.5582 67.728182,1355.10869 70.2947236,1361.65918 C71.1502375,1363.88914 72.148337,1365.97972 73.0038509,1368.0703 C74.8574643,1372.66958 76.8536633,1377.26886 78.8498624,1381.86814 C79.9905475,1384.65559 81.2738184,1387.44303 82.5570892,1390.23047 C84.2681169,1394.27227 86.1217303,1398.17469 87.9753437,1402.21648 C89.2586145,1405.00392 90.5418854,1407.93074 91.8251562,1410.71818 C93.8213552,1415.03872 95.8175543,1419.35925 97.956339,1423.54042 C99.0970241,1425.90975 100.237709,1428.27907 101.378394,1430.6484 C104.372693,1436.78077 107.509577,1442.91315 110.646461,1448.90615 C112.072318,1451.6936 113.64076,1454.48104 115.066617,1457.12911 C117.062816,1460.75279 118.916429,1464.51583 121.055214,1468.13951 C122.766241,1471.06633 124.334684,1474.13251 126.045711,1477.05933 C128.04191,1480.54363 129.895524,1483.88856 131.891723,1487.37287 C133.602751,1490.29968 135.313778,1493.2265 137.024806,1496.15331 C139.306176,1500.05573 141.587547,1503.81878 144.011503,1507.7212 C146.72063,1512.18111 149.572343,1516.64102 152.424056,1521.10093 C154.562841,1524.58523 156.844211,1528.06954 158.982996,1531.41447 C160.979195,1534.48066 163.117979,1537.54685 165.114178,1540.7524 C167.110377,1543.67922 168.963991,1546.60604 170.96019,1549.39348 C173.098975,1552.59904 175.237759,1555.66523 177.51913,1558.87079 C179.515329,1561.65823 181.368942,1564.44567 183.365141,1567.09374 C185.646511,1570.2993 187.785296,1573.36549 190.066666,1576.57105 C192.205451,1579.35849 194.344236,1582.28531 196.340435,1585.07275 C200.475419,1590.64764 204.752988,1596.08315 209.030557,1601.51867 C210.884171,1603.88799 212.737784,1606.25732 214.591398,1608.62665 C217.157939,1611.83221 219.867066,1615.17714 222.433608,1618.3827 C224.287222,1620.61265 226.140835,1622.84261 227.994448,1625.21193 C230.703576,1628.55686 233.412703,1631.76242 236.264416,1634.96798 C237.975444,1636.91919 239.686471,1638.8704 241.397499,1640.82161 C247.956439,1648.34771 254.515379,1655.73444 261.216904,1663.12116 C261.644661,1663.67865 262.215003,1664.23614 262.64276,1664.65425 C265.779645,1668.13856 269.059114,1671.48349 272.195999,1674.82842 C273.907026,1676.64026 275.618054,1678.31273 277.186496,1680.12456 C280.32338,1683.4695 283.60285,1686.67506 286.88232,1690.01999 C288.593348,1691.69245 290.16179,1693.36492 291.872818,1695.03738 C295.294873,1698.38232 298.716929,1701.86662 302.138984,1705.21155 C302.851913,1705.90841 303.564841,1706.60527 304.420355,1707.30213 C312.262565,1714.82823 320.104776,1722.21496 328.232158,1729.46231 C329.087671,1730.15917 329.943185,1730.9954 330.656114,1731.69226 C334.36334,1735.03719 338.213153,1738.38213 342.062965,1741.72706 C343.488822,1742.98141 345.057264,1744.23576 346.48312,1745.49011 C350.332933,1748.83504 354.182745,1752.0406 358.032558,1755.24616 C359.315828,1756.22176 360.456514,1757.33674 361.739784,1758.31234 C375.00025,1769.18337 388.4033,1779.77566 402.234108,1790.0892 C403.089622,1790.78606 403.945136,1791.34355 404.80065,1792.04041 C409.078219,1795.24597 413.498374,1798.45153 417.775943,1801.51771 C419.059214,1802.35395 420.199899,1803.32955 421.48317,1804.16578 C425.903325,1807.37134 430.466066,1810.43753 434.886221,1813.50372 C435.313978,1813.78246 435.741735,1814.06121 436.312077,1814.47932 C451.140985,1824.65349 466.255063,1834.40954 481.654313,1843.74748 C482.509827,1844.30497 483.507926,1844.86246 484.36344,1845.41994 C489.211352,1848.34676 493.916679,1851.1342 498.764591,1853.92165 C499.76269,1854.47913 500.76079,1855.03662 501.758889,1855.59411 C522.861565,1867.71949 544.391997,1879.28738 566.350187,1889.87966 C567.348286,1890.29778 568.346386,1890.85527 569.2019,1891.27338 C574.477569,1893.78208 579.610652,1896.29078 584.886321,1898.66011 C585.456663,1898.93885 586.169592,1899.2176 586.739934,1899.49634 C603.707626,1907.30118 620.817904,1914.54853 638.213353,1921.51714 C638.498524,1921.65651 638.926281,1921.79589 639.211452,1921.93526 C644.629707,1924.02584 650.190547,1926.11642 655.751387,1928.20701 C656.749487,1928.62512 657.890172,1929.04324 658.888271,1929.32198 C771.24576,1970.85489 892.871317,1993.71192 1020.05771,1993.71192 C1407.32033,1993.71192 1744.10762,1782.70247 1916.92143,1472.04193 C1916.06591,1471.90256 1915.35299,1471.62381 1914.49747,1471.48444 C1933.46136,1446.81557 1945.0108,1415.17809 1945.0108,1381.03191 Z M560.789347,1041.80008 C560.219004,1037.34017 559.791247,1032.88026 559.506076,1028.42035 C618.251362,872.323531 715.779944,734.623838 840.68497,626.471042 C876.616553,616.01813 914.829506,610.1645 954.32573,610.1645 C1173.05211,610.1645 1350.42866,783.543465 1350.42866,997.340357 C1350.42866,1211.13725 1173.05211,1384.51621 954.32573,1384.51621 C945.770591,1384.51621 937.215453,1384.0981 928.8029,1383.67998 C778.660214,1301.72915 651.901575,1183.82031 560.789347,1041.80008 Z" id="形状" fill="url(#linearGradient-2)" fill-rule="nonzero"></path>
                                    <mask id="mask-5" fill="white">
                                        <use xlink:href="#path-4"></use>
                                    </mask>
                                    <use id="形状备份-2" fill="url(#linearGradient-3)" fill-rule="nonzero" xlink:href="#path-4"></use>
                                    <path d="M559.506076,1022.96271 C701.117937,681.055983 969.274009,467.127094 1363.97429,381.176043 C1758.67458,295.224992 2007.22155,676.718315 2109.61521,1525.65601 C1877.79359,1895.37997 1553.48681,2013.51601 1136.69486,1880.06413 C719.902915,1746.61224 527.506653,1460.91177 559.506076,1022.96271 Z" id="路径-6" fill="url(#linearGradient-6)" fill-rule="nonzero" mask="url(#mask-5)"></path>
                                </g>
                                <g id="编组-19" transform="translate(715.584723, 722.397647)" fill="url(#linearGradient-7)" fill-rule="nonzero">
                                    <path d="M247.349388,-4.7322135e-12 C383.956683,-4.7322135e-12 494.698777,109.743915 494.698777,245.119895 C494.698777,380.495874 383.956683,490.239789 247.349388,490.239789 C110.742093,490.239789 -2.39377758e-11,380.495874 -2.39377758e-11,245.119895 C-2.39377758e-11,109.743915 110.742093,-4.7322135e-12 247.349388,-4.7322135e-12 Z M335.153697,71.0781266 C276.022769,71.0781266 228.087682,118.812268 228.087682,177.695317 C228.087682,236.578365 276.022769,284.312506 335.153697,284.312506 C394.284624,284.312506 442.219712,236.578365 442.219712,177.695317 C442.219712,118.812268 394.284624,71.0781266 335.153697,71.0781266 Z" id="形状结合"></path>
                                </g>
                            </g>
                        </g>
                        <g id="编组-25备份" transform="translate(85.063972, 0.297151)">
                            <g id="编组-18" transform="translate(0.031395, 0.684860)">
                                <path d="M1945.0108,1381.03191 C1945.0108,1296.85113 1875.28642,1228.69814 1789.16469,1228.69814 C1716.30342,1228.69814 1655.13418,1277.61777 1638.0239,1343.5408 C1637.59615,1343.26206 1637.31098,1342.98331 1637.0258,1342.56519 C1625.90412,1364.586 1602.66266,1379.63819 1575.85656,1379.63819 C1538.21395,1379.63819 1507.55804,1349.81255 1507.55804,1312.87892 C1507.55804,1311.34583 1507.70062,1309.95211 1507.84321,1308.41902 C1526.09417,1153.71592 1639.16459,1027.44474 1789.0221,986.329957 C1784.60195,712.045548 1609.93453,478.318437 1363.97429,381.176043 C1370.67582,382.012276 1377.51993,382.569764 1384.36404,382.569764 C1470.48577,382.569764 1540.21015,314.416779 1540.21015,230.235995 C1540.21015,162.919242 1495.43826,105.776657 1433.4135,85.7070659 C1306.94003,30.7944353 1166.92093,0.132560354 1019.62996,0.132560354 C818.441609,0.132560354 630.798899,57.1357733 472.814003,155.393145 C472.814003,155.393145 472.814003,155.393145 472.814003,155.393145 C455.56114,166.124802 438.736033,177.274574 422.338684,188.981836 C421.055413,189.818069 419.772142,190.793674 418.488872,191.629907 C411.359589,196.786677 404.230307,201.943446 397.24361,207.239588 C396.245511,207.936449 395.389997,208.63331 394.391897,209.330171 C378.422305,221.455549 362.88047,233.999043 347.766391,246.960654 C346.768292,247.796887 345.912778,248.63312 344.914678,249.469353 C338.355739,255.044239 331.939384,260.758497 325.52303,266.612128 C324.23976,267.727105 323.099074,268.842083 321.815804,269.95706 C314.829107,276.368179 307.984996,282.779299 301.28347,289.32979 C301.140885,289.469162 300.855714,289.747907 300.713128,289.887279 C293.44126,296.995259 286.169392,304.242611 279.04011,311.629335 C278.754938,311.90808 278.612353,312.186824 278.327181,312.326196 C271.910827,319.01606 265.494473,325.705924 259.220705,332.674531 C257.937434,334.068253 256.654163,335.461975 255.513478,336.855696 C249.952638,342.988071 244.534383,349.259818 239.116129,355.531566 C238.118029,356.785915 237.11993,357.900892 235.979245,359.155242 C223.289122,374.068063 211.026756,389.399 199.192148,405.008682 C198.194048,406.402404 197.053363,407.796125 196.055264,409.189847 C191.207352,415.600966 186.502025,422.012085 181.939285,428.562577 C180.656014,430.374415 179.372743,432.046881 178.232058,433.858719 C173.24156,440.966699 168.393648,448.074679 163.688322,455.182659 C163.117979,456.018892 162.547637,456.855125 161.977294,457.691358 C156.55904,465.914315 151.140785,474.276645 146.007702,482.778347 C145.437359,483.753952 144.867017,484.729557 144.296674,485.56579 C139.876519,492.813142 135.59895,500.060494 131.32138,507.307847 C130.180695,509.398429 128.897424,511.489011 127.756739,513.579594 C124.049512,520.130085 120.342285,526.819949 116.777644,533.509812 C115.779545,535.461023 114.63886,537.412233 113.64076,539.224071 C104.657864,556.227474 96.1027256,573.648994 87.9753437,591.209886 C86.9772442,593.300469 85.9791447,595.530423 85.1236308,597.760378 C82.1293322,604.450241 79.1350337,611.140105 76.2833207,617.969341 C75.2852212,620.47804 74.144536,622.986738 73.1464365,625.495437 C70.1521379,632.74279 67.300425,640.129514 64.4487121,647.516238 C63.8783695,649.188704 63.1654413,650.721798 62.5950987,652.394264 C59.1730432,661.453454 55.8935733,670.652017 52.7566891,679.711207 C52.1863465,681.383673 51.6160039,683.195511 51.0456613,684.867977 C48.6217054,692.254701 46.1977494,699.641426 43.7737934,707.167522 C42.9182795,709.954966 42.0627656,712.742409 41.2072518,715.529852 C39.2110527,722.359088 37.2148537,729.188323 35.3612403,736.017559 C34.648312,738.66563 33.9353838,741.313701 33.2224556,743.961772 C28.231958,762.637642 23.8118029,781.452883 19.8194048,800.546869 C19.2490622,803.334312 18.6787197,806.121755 18.1083771,808.909198 C16.8251063,815.877806 15.5418354,822.707042 14.2585646,829.67565 C13.688222,832.741838 13.2604651,835.808025 12.6901225,839.013585 C11.4068517,846.539681 10.4087522,854.065778 9.268067,861.591874 C8.98289571,863.821829 8.55513877,866.051784 8.26996748,868.281738 C6.98669667,878.037789 5.8460115,887.654468 4.84791197,897.410519 C4.56274068,899.640474 4.42015503,902.0098 4.27756939,904.239755 C3.56464116,911.765852 2.85171292,919.43132 2.42395599,927.096789 C2.13878469,930.302349 1.99619905,933.647281 1.8536134,936.85284 C1.42585646,943.96082 1.14068517,951.0688 0.855513877,958.176781 C0.712928231,961.242968 0.570342585,964.309156 0.570342585,967.235971 C0.285171292,977.270766 2.27373675e-13,987.16619 2.27373675e-13,997.200985 C2.27373675e-13,1005.00583 0.142585646,1012.81067 0.285171292,1020.61551 C0.285171292,1022.98483 0.427756939,1025.49353 0.570342585,1027.86286 C0.712928231,1033.29837 0.998099524,1038.87326 1.14068517,1044.30877 C1.28327082,1046.95685 1.42585646,1049.60492 1.56844211,1052.11362 C1.8536134,1057.82787 2.28137034,1063.54213 2.70912728,1069.25639 C2.85171292,1071.34697 2.99429857,1073.43756 3.13688422,1075.38877 C3.7072268,1083.05423 4.42015503,1090.7197 5.27566891,1098.2458 C5.41825456,1099.77889 5.5608402,1101.31199 5.8460115,1102.70571 C6.55893973,1108.83808 7.27186796,1114.97046 7.98479619,1121.10283 C8.26996748,1123.61153 8.69772442,1126.12023 8.98289571,1128.7683 C9.69582394,1133.92507 10.4087522,1139.22121 11.2642661,1144.37798 C11.692023,1146.88668 11.9771943,1149.39538 12.4049512,1152.04345 C13.4030507,1158.03646 14.4011503,1163.89009 15.3992498,1169.88309 C15.6844211,1171.41618 15.9695924,1173.08865 16.2547637,1174.62174 C17.5380345,1182.00847 19.1064766,1189.25582 20.5323331,1196.64254 C20.96009,1198.8725 21.5304326,1200.96308 21.9581895,1203.19304 C23.0988747,1208.48918 24.2395599,1213.64595 25.380245,1218.80272 C25.9505876,1221.45079 26.6635158,1224.09886 27.2338584,1226.74693 C28.3745436,1231.62496 29.6578144,1236.64235 30.9410852,1241.52038 C31.5114278,1244.02908 32.224356,1246.39841 32.7946986,1248.9071 C34.648312,1255.59697 36.5019254,1262.28683 38.3555388,1268.97669 C38.6407101,1270.09167 39.0684671,1271.20665 39.3536384,1272.32163 C41.2072518,1278.73275 43.2034508,1285.00449 45.1996499,1291.41561 C46.0551637,1293.92431 46.9106776,1296.57238 47.6236058,1299.08108 C49.0494623,1303.68036 50.6179044,1308.27964 52.1863465,1312.73955 C53.184446,1315.527 54.0399599,1318.17507 55.0380594,1320.96251 C56.6065016,1325.56179 58.3175293,1330.16107 60.0285571,1334.76035 C60.8840709,1337.12968 61.7395848,1339.49901 62.5950987,1341.86833 C65.1616403,1348.5582 67.728182,1355.10869 70.2947236,1361.65918 C71.1502375,1363.88914 72.148337,1365.97972 73.0038509,1368.0703 C74.8574643,1372.66958 76.8536633,1377.26886 78.8498624,1381.86814 C79.9905475,1384.65559 81.2738184,1387.44303 82.5570892,1390.23047 C84.2681169,1394.27227 86.1217303,1398.17469 87.9753437,1402.21648 C89.2586145,1405.00392 90.5418854,1407.93074 91.8251562,1410.71818 C93.8213552,1415.03872 95.8175543,1419.35925 97.956339,1423.54042 C99.0970241,1425.90975 100.237709,1428.27907 101.378394,1430.6484 C104.372693,1436.78077 107.509577,1442.91315 110.646461,1448.90615 C112.072318,1451.6936 113.64076,1454.48104 115.066617,1457.12911 C117.062816,1460.75279 118.916429,1464.51583 121.055214,1468.13951 C122.766241,1471.06633 124.334684,1474.13251 126.045711,1477.05933 C128.04191,1480.54363 129.895524,1483.88856 131.891723,1487.37287 C133.602751,1490.29968 135.313778,1493.2265 137.024806,1496.15331 C139.306176,1500.05573 141.587547,1503.81878 144.011503,1507.7212 C146.72063,1512.18111 149.572343,1516.64102 152.424056,1521.10093 C154.562841,1524.58523 156.844211,1528.06954 158.982996,1531.41447 C160.979195,1534.48066 163.117979,1537.54685 165.114178,1540.7524 C167.110377,1543.67922 168.963991,1546.60604 170.96019,1549.39348 C173.098975,1552.59904 175.237759,1555.66523 177.51913,1558.87079 C179.515329,1561.65823 181.368942,1564.44567 183.365141,1567.09374 C185.646511,1570.2993 187.785296,1573.36549 190.066666,1576.57105 C192.205451,1579.35849 194.344236,1582.28531 196.340435,1585.07275 C200.475419,1590.64764 204.752988,1596.08315 209.030557,1601.51867 C210.884171,1603.88799 212.737784,1606.25732 214.591398,1608.62665 C217.157939,1611.83221 219.867066,1615.17714 222.433608,1618.3827 C224.287222,1620.61265 226.140835,1622.84261 227.994448,1625.21193 C230.703576,1628.55686 233.412703,1631.76242 236.264416,1634.96798 C237.975444,1636.91919 239.686471,1638.8704 241.397499,1640.82161 C247.956439,1648.34771 254.515379,1655.73444 261.216904,1663.12116 C261.644661,1663.67865 262.215003,1664.23614 262.64276,1664.65425 C265.779645,1668.13856 269.059114,1671.48349 272.195999,1674.82842 C273.907026,1676.64026 275.618054,1678.31273 277.186496,1680.12456 C280.32338,1683.4695 283.60285,1686.67506 286.88232,1690.01999 C288.593348,1691.69245 290.16179,1693.36492 291.872818,1695.03738 C295.294873,1698.38232 298.716929,1701.86662 302.138984,1705.21155 C302.851913,1705.90841 303.564841,1706.60527 304.420355,1707.30213 C312.262565,1714.82823 320.104776,1722.21496 328.232158,1729.46231 C329.087671,1730.15917 329.943185,1730.9954 330.656114,1731.69226 C334.36334,1735.03719 338.213153,1738.38213 342.062965,1741.72706 C343.488822,1742.98141 345.057264,1744.23576 346.48312,1745.49011 C350.332933,1748.83504 354.182745,1752.0406 358.032558,1755.24616 C359.315828,1756.22176 360.456514,1757.33674 361.739784,1758.31234 C375.00025,1769.18337 388.4033,1779.77566 402.234108,1790.0892 C403.089622,1790.78606 403.945136,1791.34355 404.80065,1792.04041 C409.078219,1795.24597 413.498374,1798.45153 417.775943,1801.51771 C419.059214,1802.35395 420.199899,1803.32955 421.48317,1804.16578 C425.903325,1807.37134 430.466066,1810.43753 434.886221,1813.50372 C435.313978,1813.78246 435.741735,1814.06121 436.312077,1814.47932 C451.140985,1824.65349 466.255063,1834.40954 481.654313,1843.74748 C482.509827,1844.30497 483.507926,1844.86246 484.36344,1845.41994 C489.211352,1848.34676 493.916679,1851.1342 498.764591,1853.92165 C499.76269,1854.47913 500.76079,1855.03662 501.758889,1855.59411 C522.861565,1867.71949 544.391997,1879.28738 566.350187,1889.87966 C567.348286,1890.29778 568.346386,1890.85527 569.2019,1891.27338 C574.477569,1893.78208 579.610652,1896.29078 584.886321,1898.66011 C585.456663,1898.93885 586.169592,1899.2176 586.739934,1899.49634 C603.707626,1907.30118 620.817904,1914.54853 638.213353,1921.51714 C638.498524,1921.65651 638.926281,1921.79589 639.211452,1921.93526 C644.629707,1924.02584 650.190547,1926.11642 655.751387,1928.20701 C656.749487,1928.62512 657.890172,1929.04324 658.888271,1929.32198 C771.24576,1970.85489 892.871317,1993.71192 1020.05771,1993.71192 C1407.32033,1993.71192 1744.10762,1782.70247 1916.92143,1472.04193 C1916.06591,1471.90256 1915.35299,1471.62381 1914.49747,1471.48444 C1933.46136,1446.81557 1945.0108,1415.17809 1945.0108,1381.03191 Z M560.789347,1041.80008 C560.219004,1037.34017 559.791247,1032.88026 559.506076,1028.42035 C618.251362,872.323531 715.779944,734.623838 840.68497,626.471042 C876.616553,616.01813 914.829506,610.1645 954.32573,610.1645 C1173.05211,610.1645 1350.42866,783.543465 1350.42866,997.340357 C1350.42866,1211.13725 1173.05211,1384.51621 954.32573,1384.51621 C945.770591,1384.51621 937.215453,1384.0981 928.8029,1383.67998 C778.660214,1301.72915 651.901575,1183.82031 560.789347,1041.80008 Z" id="形状" fill="url(#linearGradient-2)" fill-rule="nonzero"></path>
                                <mask id="mask-9" fill="white">
                                    <use xlink:href="#path-8"></use>
                                </mask>
                                <use id="形状备份-2" fill="url(#linearGradient-3)" fill-rule="nonzero" xlink:href="#path-8"></use>
                                <path d="M559.506076,1022.96271 C701.117937,681.055983 969.274009,467.127094 1363.97429,381.176043 C1758.67458,295.224992 2007.22155,676.718315 2109.61521,1525.65601 C1877.79359,1895.37997 1553.48681,2013.51601 1136.69486,1880.06413 C719.902915,1746.61224 527.506653,1460.91177 559.506076,1022.96271 Z" id="路径-6" fill="url(#linearGradient-6)" fill-rule="nonzero" mask="url(#mask-9)"></path>
                            </g>
                            <g id="编组-19" transform="translate(715.584723, 722.397647)" fill="url(#linearGradient-7)" fill-rule="nonzero">
                                <path d="M247.349388,-4.7322135e-12 C383.956683,-4.7322135e-12 494.698777,109.743915 494.698777,245.119895 C494.698777,380.495874 383.956683,490.239789 247.349388,490.239789 C110.742093,490.239789 -2.39377758e-11,380.495874 -2.39377758e-11,245.119895 C-2.39377758e-11,109.743915 110.742093,-4.7322135e-12 247.349388,-4.7322135e-12 Z M335.153697,71.0781266 C276.022769,71.0781266 228.087682,118.812268 228.087682,177.695317 C228.087682,236.578365 276.022769,284.312506 335.153697,284.312506 C394.284624,284.312506 442.219712,236.578365 442.219712,177.695317 C442.219712,118.812268 394.284624,71.0781266 335.153697,71.0781266 Z" id="形状结合"></path>
                            </g>
                        </g>
                    </g>
                </g>
            </g>
        </g>
    </g>
</svg>